<svg xmlns="http://www.w3.org/2000/svg" xmlns:xlink="http://www.w3.org/1999/xlink" width="500" zoomAndPan="magnify" viewBox="0 0 375 374.999991" height="500" preserveAspectRatio="xMidYMid meet" version="1.0"><defs><g/><clipPath id="e255334e2d"><path d="M 184 115 L 249 115 L 249 140 L 184 140 Z M 184 115 " clip-rule="nonzero"/></clipPath><clipPath id="913cbd636c"><path d="M 119.496094 157.761719 L 284.421875 52.320312 L 389.859375 217.246094 L 224.933594 322.6875 Z M 119.496094 157.761719 " clip-rule="nonzero"/></clipPath><clipPath id="59e2fd2238"><path d="M 284.390625 52.339844 L 119.464844 157.78125 L 224.90625 322.707031 L 389.832031 217.265625 Z M 284.390625 52.339844 " clip-rule="nonzero"/></clipPath><clipPath id="42ccc2301b"><path d="M 208 98 L 225 98 L 225 115 L 208 115 Z M 208 98 " clip-rule="nonzero"/></clipPath><clipPath id="c9b8f10eb5"><path d="M 119.496094 157.761719 L 284.421875 52.320312 L 389.859375 217.246094 L 224.933594 322.6875 Z M 119.496094 157.761719 " clip-rule="nonzero"/></clipPath><clipPath id="685580c973"><path d="M 284.390625 52.339844 L 119.464844 157.78125 L 224.90625 322.707031 L 389.832031 217.265625 Z M 284.390625 52.339844 " clip-rule="nonzero"/></clipPath><clipPath id="0fc01e62f8"><path d="M 244 91 L 296 91 L 296 145 L 244 145 Z M 244 91 " clip-rule="nonzero"/></clipPath><clipPath id="410131bc2b"><path d="M 119.496094 157.761719 L 284.421875 52.320312 L 389.859375 217.246094 L 224.933594 322.6875 Z M 119.496094 157.761719 " clip-rule="nonzero"/></clipPath><clipPath id="61b00739a6"><path d="M 284.390625 52.339844 L 119.464844 157.78125 L 224.90625 322.707031 L 389.832031 217.265625 Z M 284.390625 52.339844 " clip-rule="nonzero"/></clipPath><clipPath id="240a940157"><path d="M 276 95 L 294 95 L 294 112 L 276 112 Z M 276 95 " clip-rule="nonzero"/></clipPath><clipPath id="86621b9f04"><path d="M 119.496094 157.761719 L 284.421875 52.320312 L 389.859375 217.246094 L 224.933594 322.6875 Z M 119.496094 157.761719 " clip-rule="nonzero"/></clipPath><clipPath id="e63f83d649"><path d="M 284.390625 52.339844 L 119.464844 157.78125 L 224.90625 322.707031 L 389.832031 217.265625 Z M 284.390625 52.339844 " clip-rule="nonzero"/></clipPath><clipPath id="449ecab03e"><path d="M 302 117 L 327 117 L 327 182 L 302 182 Z M 302 117 " clip-rule="nonzero"/></clipPath><clipPath id="74917f10be"><path d="M 119.496094 157.761719 L 284.421875 52.320312 L 389.859375 217.246094 L 224.933594 322.6875 Z M 119.496094 157.761719 " clip-rule="nonzero"/></clipPath><clipPath id="3c05efbfed"><path d="M 284.390625 52.339844 L 119.464844 157.78125 L 224.90625 322.707031 L 389.832031 217.265625 Z M 284.390625 52.339844 " clip-rule="nonzero"/></clipPath><clipPath id="466cb4cb14"><path d="M 327 141 L 344 141 L 344 158 L 327 158 Z M 327 141 " clip-rule="nonzero"/></clipPath><clipPath id="6e3c799829"><path d="M 119.496094 157.761719 L 284.421875 52.320312 L 389.859375 217.246094 L 224.933594 322.6875 Z M 119.496094 157.761719 " clip-rule="nonzero"/></clipPath><clipPath id="d9a5f30e4e"><path d="M 284.390625 52.339844 L 119.464844 157.78125 L 224.90625 322.707031 L 389.832031 217.265625 Z M 284.390625 52.339844 " clip-rule="nonzero"/></clipPath><clipPath id="5f2006e8dc"><path d="M 297 177 L 351 177 L 351 229 L 297 229 Z M 297 177 " clip-rule="nonzero"/></clipPath><clipPath id="71e2e6432d"><path d="M 119.496094 157.761719 L 284.421875 52.320312 L 389.859375 217.246094 L 224.933594 322.6875 Z M 119.496094 157.761719 " clip-rule="nonzero"/></clipPath><clipPath id="eb2c2165b5"><path d="M 284.390625 52.339844 L 119.464844 157.78125 L 224.90625 322.707031 L 389.832031 217.265625 Z M 284.390625 52.339844 " clip-rule="nonzero"/></clipPath><clipPath id="455df075a5"><path d="M 330 209 L 347 209 L 347 227 L 330 227 Z M 330 209 " clip-rule="nonzero"/></clipPath><clipPath id="9484cb6571"><path d="M 119.496094 157.761719 L 284.421875 52.320312 L 389.859375 217.246094 L 224.933594 322.6875 Z M 119.496094 157.761719 " clip-rule="nonzero"/></clipPath><clipPath id="460ddb408e"><path d="M 284.390625 52.339844 L 119.464844 157.78125 L 224.90625 322.707031 L 389.832031 217.265625 Z M 284.390625 52.339844 " clip-rule="nonzero"/></clipPath><clipPath id="b415a02e70"><path d="M 260 236 L 326 236 L 326 260 L 260 260 Z M 260 236 " clip-rule="nonzero"/></clipPath><clipPath id="284732bc6b"><path d="M 119.496094 157.761719 L 284.421875 52.320312 L 389.859375 217.246094 L 224.933594 322.6875 Z M 119.496094 157.761719 " clip-rule="nonzero"/></clipPath><clipPath id="eb72733da5"><path d="M 284.390625 52.339844 L 119.464844 157.78125 L 224.90625 322.707031 L 389.832031 217.265625 Z M 284.390625 52.339844 " clip-rule="nonzero"/></clipPath><clipPath id="00d10c3940"><path d="M 284 260 L 301 260 L 301 277 L 284 277 Z M 284 260 " clip-rule="nonzero"/></clipPath><clipPath id="4c7b4075df"><path d="M 119.496094 157.761719 L 284.421875 52.320312 L 389.859375 217.246094 L 224.933594 322.6875 Z M 119.496094 157.761719 " clip-rule="nonzero"/></clipPath><clipPath id="5e205564da"><path d="M 284.390625 52.339844 L 119.464844 157.78125 L 224.90625 322.707031 L 389.832031 217.265625 Z M 284.390625 52.339844 " clip-rule="nonzero"/></clipPath><clipPath id="6d0f5981c8"><path d="M 213 231 L 266 231 L 266 284 L 213 284 Z M 213 231 " clip-rule="nonzero"/></clipPath><clipPath id="72385a4ee5"><path d="M 119.496094 157.761719 L 284.421875 52.320312 L 389.859375 217.246094 L 224.933594 322.6875 Z M 119.496094 157.761719 " clip-rule="nonzero"/></clipPath><clipPath id="3470ccb02f"><path d="M 284.390625 52.339844 L 119.464844 157.78125 L 224.90625 322.707031 L 389.832031 217.265625 Z M 284.390625 52.339844 " clip-rule="nonzero"/></clipPath><clipPath id="af1f08c3be"><path d="M 216 263 L 233 263 L 233 280 L 216 280 Z M 216 263 " clip-rule="nonzero"/></clipPath><clipPath id="43960f9afb"><path d="M 119.496094 157.761719 L 284.421875 52.320312 L 389.859375 217.246094 L 224.933594 322.6875 Z M 119.496094 157.761719 " clip-rule="nonzero"/></clipPath><clipPath id="161fd4632f"><path d="M 284.390625 52.339844 L 119.464844 157.78125 L 224.90625 322.707031 L 389.832031 217.265625 Z M 284.390625 52.339844 " clip-rule="nonzero"/></clipPath><clipPath id="6ca0a01944"><path d="M 182 193 L 207 193 L 207 259 L 182 259 Z M 182 193 " clip-rule="nonzero"/></clipPath><clipPath id="4e8a3e2b88"><path d="M 119.496094 157.761719 L 284.421875 52.320312 L 389.859375 217.246094 L 224.933594 322.6875 Z M 119.496094 157.761719 " clip-rule="nonzero"/></clipPath><clipPath id="41c8cef156"><path d="M 284.390625 52.339844 L 119.464844 157.78125 L 224.90625 322.707031 L 389.832031 217.265625 Z M 284.390625 52.339844 " clip-rule="nonzero"/></clipPath><clipPath id="43cc7e1538"><path d="M 165 217 L 182 217 L 182 234 L 165 234 Z M 165 217 " clip-rule="nonzero"/></clipPath><clipPath id="1e7760fdbf"><path d="M 119.496094 157.761719 L 284.421875 52.320312 L 389.859375 217.246094 L 224.933594 322.6875 Z M 119.496094 157.761719 " clip-rule="nonzero"/></clipPath><clipPath id="dd00a379c6"><path d="M 284.390625 52.339844 L 119.464844 157.78125 L 224.90625 322.707031 L 389.832031 217.265625 Z M 284.390625 52.339844 " clip-rule="nonzero"/></clipPath><clipPath id="6a7e1e874b"><path d="M 158 146 L 212 146 L 212 199 L 158 199 Z M 158 146 " clip-rule="nonzero"/></clipPath><clipPath id="214282dad6"><path d="M 119.496094 157.761719 L 284.421875 52.320312 L 389.859375 217.246094 L 224.933594 322.6875 Z M 119.496094 157.761719 " clip-rule="nonzero"/></clipPath><clipPath id="325327e796"><path d="M 284.390625 52.339844 L 119.464844 157.78125 L 224.90625 322.707031 L 389.832031 217.265625 Z M 284.390625 52.339844 " clip-rule="nonzero"/></clipPath><clipPath id="08581a1898"><path d="M 162 149 L 179 149 L 179 166 L 162 166 Z M 162 149 " clip-rule="nonzero"/></clipPath><clipPath id="d3cf7254db"><path d="M 119.496094 157.761719 L 284.421875 52.320312 L 389.859375 217.246094 L 224.933594 322.6875 Z M 119.496094 157.761719 " clip-rule="nonzero"/></clipPath><clipPath id="a1ea2c2295"><path d="M 284.390625 52.339844 L 119.464844 157.78125 L 224.90625 322.707031 L 389.832031 217.265625 Z M 284.390625 52.339844 " clip-rule="nonzero"/></clipPath></defs><rect x="-37.5" width="450" fill="#ffffff" y="-37.499999" height="449.999989" fill-opacity="1"/><rect x="-37.5" width="450" fill="#020202" y="-37.499999" height="449.999989" fill-opacity="1"/><g clip-path="url(#e255334e2d)"><g clip-path="url(#913cbd636c)"><g clip-path="url(#59e2fd2238)"><path fill="#de1341" d="M 187.863281 118.757812 C 192.371094 114.753906 199.273438 114.996094 203.480469 119.386719 C 211.820312 128.066406 220.542969 128.238281 229.230469 119.910156 C 233.730469 115.589844 240.875 115.730469 245.199219 120.234375 L 245.210938 120.253906 C 249.511719 124.742188 249.367188 131.886719 244.871094 136.191406 L 244.855469 136.214844 C 240.351562 140.511719 233.214844 140.363281 228.898438 135.871094 C 220.578125 127.195312 211.847656 127.011719 203.160156 135.355469 C 198.679688 139.652344 191.492188 139.507812 187.199219 135.027344 C 185.109375 132.859375 183.996094 129.953125 184.050781 126.945312 C 184.117188 124.347656 185.0625 121.769531 186.890625 119.714844 L 187.863281 118.757812 " fill-opacity="1" fill-rule="evenodd"/></g></g></g><g clip-path="url(#42ccc2301b)"><g clip-path="url(#c9b8f10eb5)"><g clip-path="url(#685580c973)"><path fill="#de1341" d="M 224.769531 106.96875 C 224.675781 111.472656 220.949219 115.050781 216.441406 114.957031 C 211.9375 114.867188 208.351562 111.140625 208.441406 106.636719 C 208.535156 102.132812 212.265625 98.554688 216.765625 98.636719 C 221.269531 98.730469 224.855469 102.453125 224.769531 106.96875 " fill-opacity="1" fill-rule="evenodd"/></g></g></g><g clip-path="url(#0fc01e62f8)"><g clip-path="url(#410131bc2b)"><g clip-path="url(#61b00739a6)"><path fill="#de1341" d="M 256.164062 91.753906 C 262.183594 92.109375 266.886719 97.167969 266.765625 103.246094 C 266.519531 115.28125 272.578125 121.578125 284.597656 121.816406 C 290.839844 121.949219 295.789062 127.101562 295.664062 133.339844 L 295.667969 133.363281 C 295.523438 139.585938 290.375 144.519531 284.15625 144.398438 L 284.121094 144.394531 C 277.898438 144.265625 272.957031 139.105469 273.085938 132.878906 C 273.332031 120.84375 267.277344 114.558594 255.253906 114.308594 C 249.046875 114.183594 244.0625 108.996094 244.1875 102.789062 C 244.25 99.773438 245.519531 96.929688 247.683594 94.859375 C 249.5625 93.054688 252.054688 91.910156 254.8125 91.746094 L 256.164062 91.753906 " fill-opacity="1" fill-rule="evenodd"/></g></g></g><g clip-path="url(#240a940157)"><g clip-path="url(#86621b9f04)"><g clip-path="url(#e63f83d649)"><path fill="#de1341" d="M 290.597656 109.511719 C 287.355469 112.636719 282.183594 112.535156 279.066406 109.28125 C 275.933594 106.027344 276.042969 100.867188 279.289062 97.738281 C 282.539062 94.621094 287.710938 94.722656 290.835938 97.96875 C 293.953125 101.222656 293.851562 106.394531 290.597656 109.511719 " fill-opacity="1" fill-rule="evenodd"/></g></g></g><g clip-path="url(#449ecab03e)"><g clip-path="url(#74917f10be)"><g clip-path="url(#3c05efbfed)"><path fill="#de1341" d="M 323.558594 120.960938 C 327.5625 125.472656 327.320312 132.371094 322.925781 136.582031 C 314.25 144.921875 314.066406 153.652344 322.40625 162.328125 C 326.726562 166.832031 326.582031 173.976562 322.082031 178.300781 L 322.0625 178.3125 C 317.5625 182.617188 310.425781 182.46875 306.121094 177.96875 L 306.097656 177.957031 C 301.804688 173.453125 301.953125 166.316406 306.433594 162.007812 C 315.125 153.660156 315.304688 144.949219 306.957031 136.257812 C 302.664062 131.78125 302.808594 124.59375 307.285156 120.300781 C 309.457031 118.210938 312.363281 117.097656 315.371094 117.152344 C 317.964844 117.214844 320.546875 118.160156 322.601562 119.988281 L 323.558594 120.960938 " fill-opacity="1" fill-rule="evenodd"/></g></g></g><g clip-path="url(#466cb4cb14)"><g clip-path="url(#6e3c799829)"><g clip-path="url(#d9a5f30e4e)"><path fill="#de1341" d="M 335.34375 157.871094 C 330.839844 157.777344 327.261719 154.046875 327.355469 149.542969 C 327.449219 145.039062 331.171875 141.449219 335.679688 141.542969 C 340.183594 141.636719 343.761719 145.367188 343.675781 149.867188 C 343.585938 154.371094 339.859375 157.957031 335.34375 157.871094 " fill-opacity="1" fill-rule="evenodd"/></g></g></g><g clip-path="url(#5f2006e8dc)"><g clip-path="url(#71e2e6432d)"><g clip-path="url(#eb2c2165b5)"><path fill="#de1341" d="M 350.5625 189.261719 C 350.203125 195.285156 345.148438 199.988281 339.066406 199.867188 C 327.03125 199.621094 320.738281 205.679688 320.496094 217.699219 C 320.363281 223.941406 315.210938 228.890625 308.976562 228.765625 L 308.949219 228.769531 C 302.726562 228.625 297.785156 223.480469 297.914062 217.253906 L 297.910156 217.230469 C 298.050781 210.996094 303.210938 206.058594 309.433594 206.1875 C 321.46875 206.429688 327.761719 200.390625 328.003906 188.355469 C 328.132812 182.144531 333.316406 177.160156 339.515625 177.292969 C 342.539062 177.351562 345.382812 178.617188 347.457031 180.785156 C 349.261719 182.664062 350.40625 185.15625 350.570312 187.914062 L 350.5625 189.261719 " fill-opacity="1" fill-rule="evenodd"/></g></g></g><g clip-path="url(#455df075a5)"><g clip-path="url(#9484cb6571)"><g clip-path="url(#460ddb408e)"><path fill="#de1341" d="M 332.804688 223.699219 C 329.675781 220.453125 329.78125 215.285156 333.03125 212.167969 C 336.277344 209.039062 341.449219 209.140625 344.574219 212.386719 C 347.691406 215.640625 347.589844 220.808594 344.34375 223.9375 C 341.09375 227.054688 335.921875 226.953125 332.804688 223.699219 " fill-opacity="1" fill-rule="evenodd"/></g></g></g><g clip-path="url(#b415a02e70)"><g clip-path="url(#284732bc6b)"><g clip-path="url(#eb72733da5)"><path fill="#de1341" d="M 321.351562 256.660156 C 316.84375 260.664062 309.941406 260.417969 305.734375 256.027344 C 297.394531 247.347656 288.664062 247.164062 279.984375 255.503906 C 275.484375 259.828125 268.335938 259.683594 264.015625 255.183594 L 264.003906 255.164062 C 259.695312 250.664062 259.847656 243.527344 264.34375 239.222656 L 264.359375 239.199219 C 268.863281 234.902344 276 235.054688 280.3125 239.542969 C 288.636719 248.21875 297.367188 248.402344 306.046875 240.0625 C 310.523438 235.769531 317.722656 235.910156 322.015625 240.386719 C 324.105469 242.558594 325.21875 245.464844 325.164062 248.472656 C 325.097656 251.066406 324.152344 253.648438 322.324219 255.699219 L 321.351562 256.660156 " fill-opacity="1" fill-rule="evenodd"/></g></g></g><g clip-path="url(#00d10c3940)"><g clip-path="url(#4c7b4075df)"><g clip-path="url(#5e205564da)"><path fill="#de1341" d="M 284.445312 268.445312 C 284.539062 263.941406 288.265625 260.363281 292.773438 260.457031 C 297.277344 260.550781 300.863281 264.273438 300.769531 268.777344 C 300.679688 273.285156 296.949219 276.859375 292.449219 276.777344 C 287.933594 276.691406 284.359375 272.960938 284.445312 268.445312 " fill-opacity="1" fill-rule="evenodd"/></g></g></g><g clip-path="url(#6d0f5981c8)"><g clip-path="url(#72385a4ee5)"><g clip-path="url(#3470ccb02f)"><path fill="#de1341" d="M 253.050781 283.664062 C 247.03125 283.304688 242.324219 278.25 242.449219 272.167969 C 242.683594 260.140625 236.636719 253.835938 224.617188 253.597656 C 218.375 253.464844 213.425781 248.3125 213.546875 242.078125 L 213.546875 242.050781 C 213.691406 235.828125 218.835938 230.886719 225.058594 231.015625 L 225.085938 231.011719 C 231.316406 231.152344 236.257812 236.308594 236.128906 242.535156 C 235.882812 254.570312 241.925781 260.863281 253.960938 261.105469 C 260.167969 261.230469 265.152344 266.417969 265.027344 272.625 C 264.964844 275.640625 263.695312 278.484375 261.527344 280.558594 C 259.652344 282.359375 257.160156 283.503906 254.402344 283.667969 L 253.050781 283.664062 " fill-opacity="1" fill-rule="evenodd"/></g></g></g><g clip-path="url(#af1f08c3be)"><g clip-path="url(#43960f9afb)"><g clip-path="url(#161fd4632f)"><path fill="#de1341" d="M 218.613281 265.90625 C 221.859375 262.777344 227.03125 262.878906 230.148438 266.132812 C 233.277344 269.378906 233.171875 274.550781 229.917969 277.683594 C 226.675781 280.792969 221.503906 280.691406 218.378906 277.445312 C 215.261719 274.191406 215.363281 269.023438 218.613281 265.90625 " fill-opacity="1" fill-rule="evenodd"/></g></g></g><g clip-path="url(#6ca0a01944)"><g clip-path="url(#4e8a3e2b88)"><g clip-path="url(#41c8cef156)"><path fill="#020202" d="M 185.65625 254.453125 C 181.652344 249.945312 181.894531 243.042969 186.285156 238.832031 C 194.964844 230.492188 195.140625 221.769531 186.808594 213.085938 C 182.488281 208.585938 182.632812 201.4375 187.132812 197.117188 L 187.152344 197.101562 C 191.640625 192.804688 198.777344 192.953125 203.09375 197.445312 L 203.117188 197.457031 C 207.410156 201.960938 207.261719 209.097656 202.769531 213.414062 C 194.09375 221.738281 193.910156 230.464844 202.25 239.144531 C 206.542969 243.625 206.40625 250.824219 201.929688 255.117188 C 199.757812 257.203125 196.851562 258.320312 193.84375 258.265625 C 191.25 258.199219 188.675781 257.246094 186.613281 255.425781 L 185.65625 254.453125 " fill-opacity="1" fill-rule="evenodd"/></g></g></g><g clip-path="url(#43cc7e1538)"><g clip-path="url(#1e7760fdbf)"><g clip-path="url(#dd00a379c6)"><path fill="#020202" d="M 173.867188 217.542969 C 178.375 217.636719 181.949219 221.367188 181.859375 225.871094 C 181.765625 230.378906 178.042969 233.964844 173.535156 233.871094 C 169.03125 233.777344 165.453125 230.046875 165.539062 225.550781 C 165.625 221.035156 169.355469 217.457031 173.867188 217.542969 " fill-opacity="1" fill-rule="evenodd"/></g></g></g><g clip-path="url(#6a7e1e874b)"><g clip-path="url(#214282dad6)"><g clip-path="url(#325327e796)"><path fill="#020202" d="M 158.652344 186.152344 C 159.011719 180.132812 164.066406 175.425781 170.148438 175.550781 C 182.175781 175.785156 188.476562 169.734375 188.71875 157.71875 C 188.851562 151.476562 194.003906 146.527344 200.238281 146.648438 L 200.265625 146.644531 C 206.488281 146.792969 211.417969 151.941406 211.300781 158.160156 L 211.292969 158.191406 C 211.164062 164.417969 206.003906 169.355469 199.777344 169.226562 C 187.746094 168.984375 181.453125 175.027344 181.210938 187.058594 C 181.082031 193.269531 175.898438 198.253906 169.6875 198.128906 C 166.675781 198.0625 163.832031 196.796875 161.757812 194.628906 C 159.953125 192.753906 158.808594 190.257812 158.644531 187.503906 L 158.652344 186.152344 " fill-opacity="1" fill-rule="evenodd"/></g></g></g><g clip-path="url(#08581a1898)"><g clip-path="url(#d3cf7254db)"><g clip-path="url(#a1ea2c2295)"><path fill="#020202" d="M 176.410156 151.714844 C 179.535156 154.960938 179.433594 160.132812 176.183594 163.25 C 172.925781 166.382812 167.765625 166.273438 164.632812 163.015625 C 161.519531 159.773438 161.625 154.605469 164.871094 151.476562 C 168.121094 148.359375 173.292969 148.460938 176.410156 151.714844 " fill-opacity="1" fill-rule="evenodd"/></g></g></g><g fill="#ffffff" fill-opacity="1"><g transform="translate(15.049083, 209.974263)"><g><path d="M 20.890625 0.671875 C 17.617188 0.671875 14.707031 0.269531 12.15625 -0.53125 C 9.613281 -1.332031 7.492188 -2.390625 5.796875 -3.703125 C 4.097656 -5.015625 2.800781 -6.457031 1.90625 -8.03125 L 7.03125 -14.28125 L 7.828125 -14.28125 C 9.242188 -12.175781 11.039062 -10.5 13.21875 -9.25 C 15.40625 -8 17.960938 -7.375 20.890625 -7.375 C 23.378906 -7.375 25.253906 -7.898438 26.515625 -8.953125 C 27.785156 -10.003906 28.421875 -11.457031 28.421875 -13.3125 C 28.421875 -14.425781 28.21875 -15.359375 27.8125 -16.109375 C 27.40625 -16.859375 26.726562 -17.503906 25.78125 -18.046875 C 24.832031 -18.585938 23.554688 -19.050781 21.953125 -19.4375 L 15.890625 -20.8125 C 11.660156 -21.78125 8.503906 -23.382812 6.421875 -25.625 C 4.347656 -27.875 3.3125 -30.796875 3.3125 -34.390625 C 3.3125 -37.046875 3.976562 -39.382812 5.3125 -41.40625 C 6.644531 -43.425781 8.582031 -44.992188 11.125 -46.109375 C 13.675781 -47.234375 16.722656 -47.796875 20.265625 -47.796875 C 23.898438 -47.796875 27.007812 -47.316406 29.59375 -46.359375 C 32.1875 -45.398438 34.375 -43.929688 36.15625 -41.953125 L 31.546875 -35.640625 L 30.75 -35.640625 C 29.414062 -37.035156 27.890625 -38.082031 26.171875 -38.78125 C 24.453125 -39.476562 22.484375 -39.828125 20.265625 -39.828125 C 17.710938 -39.828125 15.769531 -39.375 14.4375 -38.46875 C 13.101562 -37.570312 12.4375 -36.328125 12.4375 -34.734375 C 12.4375 -33.253906 12.90625 -32.070312 13.84375 -31.1875 C 14.78125 -30.3125 16.394531 -29.628906 18.6875 -29.140625 L 24.875 -27.84375 C 29.457031 -26.875 32.78125 -25.234375 34.84375 -22.921875 C 36.90625 -20.617188 37.9375 -17.609375 37.9375 -13.890625 C 37.9375 -10.941406 37.300781 -8.378906 36.03125 -6.203125 C 34.757812 -4.023438 32.84375 -2.332031 30.28125 -1.125 C 27.726562 0.0703125 24.597656 0.671875 20.890625 0.671875 Z M 20.890625 0.671875 "/></g></g></g><g fill="#ffffff" fill-opacity="1"><g transform="translate(53.010532, 209.974263)"><g><path d="M 13.859375 0.671875 C 11.578125 0.671875 9.597656 0.253906 7.921875 -0.578125 C 6.253906 -1.421875 4.96875 -2.648438 4.0625 -4.265625 C 3.15625 -5.890625 2.703125 -7.84375 2.703125 -10.125 C 2.703125 -12.226562 3.15625 -13.992188 4.0625 -15.421875 C 4.96875 -16.847656 6.363281 -18.015625 8.25 -18.921875 C 10.144531 -19.835938 12.613281 -20.546875 15.65625 -21.046875 C 17.789062 -21.390625 19.410156 -21.765625 20.515625 -22.171875 C 21.617188 -22.578125 22.363281 -23.035156 22.75 -23.546875 C 23.132812 -24.066406 23.328125 -24.726562 23.328125 -25.53125 C 23.328125 -26.664062 22.929688 -27.53125 22.140625 -28.125 C 21.347656 -28.726562 20.023438 -29.03125 18.171875 -29.03125 C 16.203125 -29.03125 14.320312 -28.585938 12.53125 -27.703125 C 10.75 -26.828125 9.203125 -25.671875 7.890625 -24.234375 L 7.25 -24.234375 L 3.515625 -29.875 C 5.316406 -31.875 7.515625 -33.429688 10.109375 -34.546875 C 12.710938 -35.660156 15.550781 -36.21875 18.625 -36.21875 C 23.332031 -36.21875 26.738281 -35.21875 28.84375 -33.21875 C 30.945312 -31.226562 32 -28.394531 32 -24.71875 L 32 -9.28125 C 32 -7.6875 32.695312 -6.890625 34.09375 -6.890625 C 34.632812 -6.890625 35.160156 -6.988281 35.671875 -7.1875 L 36.125 -7.0625 L 36.765625 -0.84375 C 36.273438 -0.519531 35.585938 -0.253906 34.703125 -0.046875 C 33.828125 0.160156 32.863281 0.265625 31.8125 0.265625 C 29.6875 0.265625 28.023438 -0.140625 26.828125 -0.953125 C 25.640625 -1.773438 24.785156 -3.054688 24.265625 -4.796875 L 23.59375 -4.859375 C 21.851562 -1.171875 18.609375 0.671875 13.859375 0.671875 Z M 16.6875 -6 C 18.75 -6 20.398438 -6.691406 21.640625 -8.078125 C 22.878906 -9.460938 23.5 -11.390625 23.5 -13.859375 L 23.5 -17.46875 L 22.875 -17.59375 C 22.34375 -17.164062 21.640625 -16.804688 20.765625 -16.515625 C 19.898438 -16.222656 18.648438 -15.9375 17.015625 -15.65625 C 15.078125 -15.332031 13.679688 -14.78125 12.828125 -14 C 11.984375 -13.21875 11.5625 -12.109375 11.5625 -10.671875 C 11.5625 -9.140625 12.015625 -7.976562 12.921875 -7.1875 C 13.828125 -6.394531 15.082031 -6 16.6875 -6 Z M 16.6875 -6 "/></g></g></g><g fill="#ffffff" fill-opacity="1"><g transform="translate(87.975449, 209.974263)"><g><path d="M 5.125 0 L 5.125 -35.546875 L 13.703125 -35.546875 L 13.703125 -30.328125 L 14.375 -30.171875 C 16.582031 -34.203125 20.171875 -36.21875 25.140625 -36.21875 C 29.242188 -36.21875 32.253906 -35.097656 34.171875 -32.859375 C 36.097656 -30.628906 37.0625 -27.378906 37.0625 -23.109375 L 37.0625 0 L 28.140625 0 L 28.140625 -22.015625 C 28.140625 -24.378906 27.664062 -26.082031 26.71875 -27.125 C 25.769531 -28.164062 24.253906 -28.6875 22.171875 -28.6875 C 19.617188 -28.6875 17.625 -27.859375 16.1875 -26.203125 C 14.757812 -24.546875 14.046875 -21.945312 14.046875 -18.40625 L 14.046875 0 Z M 5.125 0 "/></g></g></g><g fill="#ffffff" fill-opacity="1"><g transform="translate(127.096851, 209.974263)"><g><path d="M 37.765625 -47.109375 L 37.765625 -39.28125 L 24.171875 -39.28125 L 24.171875 0 L 14.890625 0 L 14.890625 -39.28125 L 1.296875 -39.28125 L 1.296875 -47.109375 Z M 37.765625 -47.109375 "/></g></g></g><g fill="#ffffff" fill-opacity="1"><g transform="translate(163.640581, 209.974263)"><g><path d="M 35.125 -15.765625 L 12.28125 -15.765625 C 12.539062 -12.671875 13.421875 -10.414062 14.921875 -9 C 16.421875 -7.59375 18.472656 -6.890625 21.078125 -6.890625 C 23.117188 -6.890625 24.769531 -7.269531 26.03125 -8.03125 C 27.300781 -8.800781 28.320312 -9.957031 29.09375 -11.5 L 29.78125 -11.5 L 35.703125 -7.703125 C 34.546875 -5.210938 32.796875 -3.191406 30.453125 -1.640625 C 28.109375 -0.0976562 24.984375 0.671875 21.078125 0.671875 C 17.398438 0.671875 14.222656 -0.0234375 11.546875 -1.421875 C 8.878906 -2.816406 6.816406 -4.894531 5.359375 -7.65625 C 3.910156 -10.414062 3.1875 -13.78125 3.1875 -17.75 C 3.1875 -21.789062 3.945312 -25.195312 5.46875 -27.96875 C 7 -30.738281 9.0625 -32.804688 11.65625 -34.171875 C 14.257812 -35.535156 17.1875 -36.21875 20.4375 -36.21875 C 25.457031 -36.21875 29.304688 -34.882812 31.984375 -32.21875 C 34.660156 -29.5625 36 -25.65625 36 -20.5 C 36 -18.625 35.929688 -17.171875 35.796875 -16.140625 Z M 27.453125 -21.53125 C 27.367188 -24.238281 26.738281 -26.207031 25.5625 -27.4375 C 24.394531 -28.675781 22.6875 -29.296875 20.4375 -29.296875 C 15.925781 -29.296875 13.269531 -26.707031 12.46875 -21.53125 Z M 27.453125 -21.53125 "/></g></g></g><g fill="#ffffff" fill-opacity="1"><g transform="translate(199.765445, 209.974263)"><g><path d="M 20.71875 0.671875 C 17.28125 0.671875 14.238281 -0.0390625 11.59375 -1.46875 C 8.957031 -2.894531 6.894531 -4.992188 5.40625 -7.765625 C 3.925781 -10.535156 3.1875 -13.863281 3.1875 -17.75 C 3.1875 -21.664062 3.925781 -25.007812 5.40625 -27.78125 C 6.894531 -30.550781 8.945312 -32.648438 11.5625 -34.078125 C 14.1875 -35.503906 17.1875 -36.21875 20.5625 -36.21875 C 28.0625 -36.21875 32.863281 -33.5 34.96875 -28.0625 L 28.84375 -23.6875 L 28.171875 -23.6875 C 27.441406 -25.363281 26.488281 -26.609375 25.3125 -27.421875 C 24.144531 -28.242188 22.5625 -28.65625 20.5625 -28.65625 C 17.976562 -28.65625 15.96875 -27.757812 14.53125 -25.96875 C 13.09375 -24.1875 12.375 -21.445312 12.375 -17.75 C 12.375 -14.101562 13.101562 -11.378906 14.5625 -9.578125 C 16.03125 -7.785156 18.082031 -6.890625 20.71875 -6.890625 C 22.65625 -6.890625 24.296875 -7.410156 25.640625 -8.453125 C 26.984375 -9.492188 27.941406 -10.992188 28.515625 -12.953125 L 29.203125 -13.015625 L 35.546875 -9.546875 C 34.640625 -6.535156 32.96875 -4.078125 30.53125 -2.171875 C 28.09375 -0.273438 24.820312 0.671875 20.71875 0.671875 Z M 20.71875 0.671875 "/></g></g></g><g fill="#ffffff" fill-opacity="1"><g transform="translate(233.892628, 209.974263)"><g><path d="M 5.125 0 L 5.125 -49.828125 L 14.046875 -49.828125 L 14.046875 -30.90625 L 14.734375 -30.78125 C 15.910156 -32.519531 17.359375 -33.859375 19.078125 -34.796875 C 20.796875 -35.742188 22.867188 -36.21875 25.296875 -36.21875 C 33.140625 -36.21875 37.0625 -31.769531 37.0625 -22.875 L 37.0625 0 L 28.140625 0 L 28.140625 -21.75 C 28.140625 -24.175781 27.65625 -25.9375 26.6875 -27.03125 C 25.71875 -28.132812 24.210938 -28.6875 22.171875 -28.6875 C 19.679688 -28.6875 17.703125 -27.851562 16.234375 -26.1875 C 14.773438 -24.519531 14.046875 -21.925781 14.046875 -18.40625 L 14.046875 0 Z M 5.125 0 "/></g></g></g></svg>