<svg xmlns="http://www.w3.org/2000/svg" xmlns:xlink="http://www.w3.org/1999/xlink" width="500" zoomAndPan="magnify" viewBox="0 0 375 374.999991" height="500" preserveAspectRatio="xMidYMid meet" version="1.0"><defs><g/><clipPath id="928e185144"><path d="M 191 115 L 256 115 L 256 140 L 191 140 Z M 191 115 " clip-rule="nonzero"/></clipPath><clipPath id="73b418ab08"><path d="M 126.902344 157.761719 L 291.828125 52.320312 L 397.269531 217.246094 L 232.339844 322.6875 Z M 126.902344 157.761719 " clip-rule="nonzero"/></clipPath><clipPath id="4bd822e91d"><path d="M 291.796875 52.339844 L 126.871094 157.78125 L 232.3125 322.707031 L 397.238281 217.265625 Z M 291.796875 52.339844 " clip-rule="nonzero"/></clipPath><clipPath id="90e2bc1a34"><path d="M 215 98 L 233 98 L 233 115 L 215 115 Z M 215 98 " clip-rule="nonzero"/></clipPath><clipPath id="d763bdffe2"><path d="M 126.902344 157.761719 L 291.828125 52.320312 L 397.269531 217.246094 L 232.339844 322.6875 Z M 126.902344 157.761719 " clip-rule="nonzero"/></clipPath><clipPath id="3027d05b1b"><path d="M 291.796875 52.339844 L 126.871094 157.78125 L 232.3125 322.707031 L 397.238281 217.265625 Z M 291.796875 52.339844 " clip-rule="nonzero"/></clipPath><clipPath id="0a7e5937bc"><path d="M 251 91 L 304 91 L 304 145 L 251 145 Z M 251 91 " clip-rule="nonzero"/></clipPath><clipPath id="16683e6feb"><path d="M 126.902344 157.761719 L 291.828125 52.320312 L 397.269531 217.246094 L 232.339844 322.6875 Z M 126.902344 157.761719 " clip-rule="nonzero"/></clipPath><clipPath id="de16a7ed8b"><path d="M 291.796875 52.339844 L 126.871094 157.78125 L 232.3125 322.707031 L 397.238281 217.265625 Z M 291.796875 52.339844 " clip-rule="nonzero"/></clipPath><clipPath id="6a578cca5f"><path d="M 284 95 L 301 95 L 301 112 L 284 112 Z M 284 95 " clip-rule="nonzero"/></clipPath><clipPath id="adacc99eee"><path d="M 126.902344 157.761719 L 291.828125 52.320312 L 397.269531 217.246094 L 232.339844 322.6875 Z M 126.902344 157.761719 " clip-rule="nonzero"/></clipPath><clipPath id="2c08f0bcf6"><path d="M 291.796875 52.339844 L 126.871094 157.78125 L 232.3125 322.707031 L 397.238281 217.265625 Z M 291.796875 52.339844 " clip-rule="nonzero"/></clipPath><clipPath id="c52b11c7e8"><path d="M 310 117 L 334 117 L 334 182 L 310 182 Z M 310 117 " clip-rule="nonzero"/></clipPath><clipPath id="46bcd3dde6"><path d="M 126.902344 157.761719 L 291.828125 52.320312 L 397.269531 217.246094 L 232.339844 322.6875 Z M 126.902344 157.761719 " clip-rule="nonzero"/></clipPath><clipPath id="2e0cf8a1da"><path d="M 291.796875 52.339844 L 126.871094 157.78125 L 232.3125 322.707031 L 397.238281 217.265625 Z M 291.796875 52.339844 " clip-rule="nonzero"/></clipPath><clipPath id="75260a45c1"><path d="M 334 141 L 352 141 L 352 158 L 334 158 Z M 334 141 " clip-rule="nonzero"/></clipPath><clipPath id="fdbdd800b6"><path d="M 126.902344 157.761719 L 291.828125 52.320312 L 397.269531 217.246094 L 232.339844 322.6875 Z M 126.902344 157.761719 " clip-rule="nonzero"/></clipPath><clipPath id="7e4749cfbb"><path d="M 291.796875 52.339844 L 126.871094 157.78125 L 232.3125 322.707031 L 397.238281 217.265625 Z M 291.796875 52.339844 " clip-rule="nonzero"/></clipPath><clipPath id="acf90a81f6"><path d="M 305 177 L 358 177 L 358 229 L 305 229 Z M 305 177 " clip-rule="nonzero"/></clipPath><clipPath id="a5260fc572"><path d="M 126.902344 157.761719 L 291.828125 52.320312 L 397.269531 217.246094 L 232.339844 322.6875 Z M 126.902344 157.761719 " clip-rule="nonzero"/></clipPath><clipPath id="56d9d7c8c3"><path d="M 291.796875 52.339844 L 126.871094 157.78125 L 232.3125 322.707031 L 397.238281 217.265625 Z M 291.796875 52.339844 " clip-rule="nonzero"/></clipPath><clipPath id="3a8bc82ecc"><path d="M 337 209 L 355 209 L 355 227 L 337 227 Z M 337 209 " clip-rule="nonzero"/></clipPath><clipPath id="03f871c79f"><path d="M 126.902344 157.761719 L 291.828125 52.320312 L 397.269531 217.246094 L 232.339844 322.6875 Z M 126.902344 157.761719 " clip-rule="nonzero"/></clipPath><clipPath id="e404c42487"><path d="M 291.796875 52.339844 L 126.871094 157.78125 L 232.3125 322.707031 L 397.238281 217.265625 Z M 291.796875 52.339844 " clip-rule="nonzero"/></clipPath><clipPath id="f224e009eb"><path d="M 268 236 L 333 236 L 333 260 L 268 260 Z M 268 236 " clip-rule="nonzero"/></clipPath><clipPath id="4b4bcbf746"><path d="M 126.902344 157.761719 L 291.828125 52.320312 L 397.269531 217.246094 L 232.339844 322.6875 Z M 126.902344 157.761719 " clip-rule="nonzero"/></clipPath><clipPath id="a29626468e"><path d="M 291.796875 52.339844 L 126.871094 157.78125 L 232.3125 322.707031 L 397.238281 217.265625 Z M 291.796875 52.339844 " clip-rule="nonzero"/></clipPath><clipPath id="dc1aa1bdd9"><path d="M 291 260 L 309 260 L 309 277 L 291 277 Z M 291 260 " clip-rule="nonzero"/></clipPath><clipPath id="0b654ffcbf"><path d="M 126.902344 157.761719 L 291.828125 52.320312 L 397.269531 217.246094 L 232.339844 322.6875 Z M 126.902344 157.761719 " clip-rule="nonzero"/></clipPath><clipPath id="ade0252385"><path d="M 291.796875 52.339844 L 126.871094 157.78125 L 232.3125 322.707031 L 397.238281 217.265625 Z M 291.796875 52.339844 " clip-rule="nonzero"/></clipPath><clipPath id="8d5defe314"><path d="M 220 231 L 273 231 L 273 284 L 220 284 Z M 220 231 " clip-rule="nonzero"/></clipPath><clipPath id="5e9c35b149"><path d="M 126.902344 157.761719 L 291.828125 52.320312 L 397.269531 217.246094 L 232.339844 322.6875 Z M 126.902344 157.761719 " clip-rule="nonzero"/></clipPath><clipPath id="6d0d194ddf"><path d="M 291.796875 52.339844 L 126.871094 157.78125 L 232.3125 322.707031 L 397.238281 217.265625 Z M 291.796875 52.339844 " clip-rule="nonzero"/></clipPath><clipPath id="fd0ee7d0ae"><path d="M 223 263 L 240 263 L 240 280 L 223 280 Z M 223 263 " clip-rule="nonzero"/></clipPath><clipPath id="6e9cdf1f61"><path d="M 126.902344 157.761719 L 291.828125 52.320312 L 397.269531 217.246094 L 232.339844 322.6875 Z M 126.902344 157.761719 " clip-rule="nonzero"/></clipPath><clipPath id="fff2144d5b"><path d="M 291.796875 52.339844 L 126.871094 157.78125 L 232.3125 322.707031 L 397.238281 217.265625 Z M 291.796875 52.339844 " clip-rule="nonzero"/></clipPath><clipPath id="de7a08846f"><path d="M 190 193 L 214 193 L 214 259 L 190 259 Z M 190 193 " clip-rule="nonzero"/></clipPath><clipPath id="a7adda8dc3"><path d="M 126.902344 157.761719 L 291.828125 52.320312 L 397.269531 217.246094 L 232.339844 322.6875 Z M 126.902344 157.761719 " clip-rule="nonzero"/></clipPath><clipPath id="b74c559808"><path d="M 291.796875 52.339844 L 126.871094 157.78125 L 232.3125 322.707031 L 397.238281 217.265625 Z M 291.796875 52.339844 " clip-rule="nonzero"/></clipPath><clipPath id="6702d119b6"><path d="M 172 217 L 190 217 L 190 234 L 172 234 Z M 172 217 " clip-rule="nonzero"/></clipPath><clipPath id="020f951496"><path d="M 126.902344 157.761719 L 291.828125 52.320312 L 397.269531 217.246094 L 232.339844 322.6875 Z M 126.902344 157.761719 " clip-rule="nonzero"/></clipPath><clipPath id="a1e6a1fe5e"><path d="M 291.796875 52.339844 L 126.871094 157.78125 L 232.3125 322.707031 L 397.238281 217.265625 Z M 291.796875 52.339844 " clip-rule="nonzero"/></clipPath><clipPath id="75cf77442f"><path d="M 166 146 L 219 146 L 219 199 L 166 199 Z M 166 146 " clip-rule="nonzero"/></clipPath><clipPath id="43e96b9de7"><path d="M 126.902344 157.761719 L 291.828125 52.320312 L 397.269531 217.246094 L 232.339844 322.6875 Z M 126.902344 157.761719 " clip-rule="nonzero"/></clipPath><clipPath id="e6aefa69c0"><path d="M 291.796875 52.339844 L 126.871094 157.78125 L 232.3125 322.707031 L 397.238281 217.265625 Z M 291.796875 52.339844 " clip-rule="nonzero"/></clipPath><clipPath id="e66e8370c4"><path d="M 169 149 L 187 149 L 187 166 L 169 166 Z M 169 149 " clip-rule="nonzero"/></clipPath><clipPath id="dd2383ef2b"><path d="M 126.902344 157.761719 L 291.828125 52.320312 L 397.269531 217.246094 L 232.339844 322.6875 Z M 126.902344 157.761719 " clip-rule="nonzero"/></clipPath><clipPath id="910e1d2298"><path d="M 291.796875 52.339844 L 126.871094 157.78125 L 232.3125 322.707031 L 397.238281 217.265625 Z M 291.796875 52.339844 " clip-rule="nonzero"/></clipPath></defs><rect x="-37.5" width="450" fill="#ffffff" y="-37.499999" height="449.999989" fill-opacity="1"/><rect x="-37.5" width="450" fill="#020202" y="-37.499999" height="449.999989" fill-opacity="1"/><g clip-path="url(#928e185144)"><g clip-path="url(#73b418ab08)"><g clip-path="url(#4bd822e91d)"><path fill="#de1341" d="M 195.269531 118.757812 C 199.777344 114.753906 206.679688 114.996094 210.890625 119.386719 C 219.230469 128.066406 227.949219 128.238281 236.636719 119.910156 C 241.136719 115.589844 248.285156 115.730469 252.605469 120.234375 L 252.621094 120.253906 C 256.917969 124.742188 256.773438 131.886719 252.277344 136.191406 L 252.265625 136.214844 C 247.757812 140.511719 240.625 140.363281 236.308594 135.871094 C 227.984375 127.195312 219.253906 127.011719 210.566406 135.355469 C 206.089844 139.652344 198.898438 139.507812 194.605469 135.027344 C 192.515625 132.859375 191.402344 129.953125 191.457031 126.945312 C 191.523438 124.347656 192.46875 121.769531 194.296875 119.714844 L 195.269531 118.757812 " fill-opacity="1" fill-rule="evenodd"/></g></g></g><g clip-path="url(#90e2bc1a34)"><g clip-path="url(#d763bdffe2)"><g clip-path="url(#3027d05b1b)"><path fill="#de1341" d="M 232.175781 106.96875 C 232.085938 111.472656 228.355469 115.050781 223.847656 114.957031 C 219.34375 114.867188 215.757812 111.140625 215.851562 106.636719 C 215.945312 102.132812 219.671875 98.554688 224.171875 98.636719 C 228.675781 98.730469 232.265625 102.453125 232.175781 106.96875 " fill-opacity="1" fill-rule="evenodd"/></g></g></g><g clip-path="url(#0a7e5937bc)"><g clip-path="url(#16683e6feb)"><g clip-path="url(#de16a7ed8b)"><path fill="#de1341" d="M 263.570312 91.753906 C 269.589844 92.109375 274.296875 97.167969 274.171875 103.246094 C 273.929688 115.28125 279.988281 121.578125 292.003906 121.816406 C 298.246094 121.949219 303.195312 127.101562 303.074219 133.339844 L 303.074219 133.363281 C 302.929688 139.585938 297.78125 144.519531 291.5625 144.402344 L 291.53125 144.394531 C 285.304688 144.265625 280.363281 139.105469 280.496094 132.878906 C 280.738281 120.84375 274.6875 114.558594 262.660156 114.308594 C 256.453125 114.183594 251.46875 108.996094 251.59375 102.789062 C 251.65625 99.773438 252.925781 96.929688 255.09375 94.859375 C 256.96875 93.054688 259.460938 91.910156 262.21875 91.746094 L 263.570312 91.753906 " fill-opacity="1" fill-rule="evenodd"/></g></g></g><g clip-path="url(#6a578cca5f)"><g clip-path="url(#adacc99eee)"><g clip-path="url(#2c08f0bcf6)"><path fill="#de1341" d="M 298.007812 109.511719 C 294.761719 112.636719 289.589844 112.535156 286.472656 109.28125 C 283.339844 106.027344 283.449219 100.867188 286.695312 97.738281 C 289.945312 94.621094 295.117188 94.722656 298.246094 97.96875 C 301.363281 101.222656 301.257812 106.394531 298.007812 109.511719 " fill-opacity="1" fill-rule="evenodd"/></g></g></g><g clip-path="url(#c52b11c7e8)"><g clip-path="url(#46bcd3dde6)"><g clip-path="url(#2e0cf8a1da)"><path fill="#de1341" d="M 330.964844 120.960938 C 334.96875 125.472656 334.726562 132.371094 330.335938 136.582031 C 321.65625 144.921875 321.472656 153.652344 329.8125 162.328125 C 334.132812 166.832031 333.992188 173.976562 329.488281 178.300781 L 329.46875 178.3125 C 324.972656 182.617188 317.835938 182.46875 313.527344 177.96875 L 313.507812 177.957031 C 309.210938 173.453125 309.359375 166.316406 313.839844 162.007812 C 322.53125 153.660156 322.710938 144.949219 314.363281 136.257812 C 310.070312 131.78125 310.214844 124.59375 314.695312 120.300781 C 316.863281 118.210938 319.769531 117.097656 322.777344 117.152344 C 325.375 117.214844 327.953125 118.160156 330.007812 119.988281 L 330.964844 120.960938 " fill-opacity="1" fill-rule="evenodd"/></g></g></g><g clip-path="url(#75260a45c1)"><g clip-path="url(#fdbdd800b6)"><g clip-path="url(#7e4749cfbb)"><path fill="#de1341" d="M 342.753906 157.871094 C 338.246094 157.777344 334.671875 154.046875 334.765625 149.542969 C 334.855469 145.039062 338.582031 141.449219 343.085938 141.542969 C 347.589844 141.636719 351.167969 145.367188 351.085938 149.867188 C 350.992188 154.371094 347.269531 157.957031 342.753906 157.871094 " fill-opacity="1" fill-rule="evenodd"/></g></g></g><g clip-path="url(#acf90a81f6)"><g clip-path="url(#a5260fc572)"><g clip-path="url(#56d9d7c8c3)"><path fill="#de1341" d="M 357.96875 189.261719 C 357.613281 195.285156 352.554688 199.988281 346.472656 199.867188 C 334.441406 199.621094 328.144531 205.679688 327.902344 217.699219 C 327.769531 223.941406 322.617188 228.890625 316.382812 228.765625 L 316.355469 228.769531 C 310.136719 228.625 305.191406 223.480469 305.320312 217.253906 L 305.320312 217.230469 C 305.457031 210.996094 310.617188 206.058594 316.84375 206.1875 C 328.878906 206.429688 335.167969 200.390625 335.414062 188.355469 C 335.539062 182.144531 340.722656 177.160156 346.921875 177.292969 C 349.949219 177.351562 352.792969 178.617188 354.863281 180.785156 C 356.667969 182.664062 357.8125 185.15625 357.976562 187.914062 L 357.96875 189.261719 " fill-opacity="1" fill-rule="evenodd"/></g></g></g><g clip-path="url(#3a8bc82ecc)"><g clip-path="url(#03f871c79f)"><g clip-path="url(#e404c42487)"><path fill="#de1341" d="M 340.210938 223.699219 C 337.085938 220.453125 337.1875 215.285156 340.441406 212.167969 C 343.6875 209.039062 348.855469 209.140625 351.984375 212.386719 C 355.101562 215.640625 355 220.8125 351.753906 223.9375 C 348.5 227.054688 343.328125 226.953125 340.210938 223.699219 " fill-opacity="1" fill-rule="evenodd"/></g></g></g><g clip-path="url(#f224e009eb)"><g clip-path="url(#4b4bcbf746)"><g clip-path="url(#a29626468e)"><path fill="#de1341" d="M 328.761719 256.660156 C 324.25 260.664062 317.351562 260.417969 313.140625 256.027344 C 304.800781 247.347656 296.070312 247.164062 287.394531 255.503906 C 282.890625 259.828125 275.746094 259.683594 271.421875 255.183594 L 271.410156 255.164062 C 267.105469 250.664062 267.253906 243.527344 271.75 239.222656 L 271.765625 239.199219 C 276.269531 234.902344 283.40625 235.054688 287.722656 239.542969 C 296.046875 248.21875 304.773438 248.402344 313.453125 240.0625 C 317.929688 235.769531 325.128906 235.910156 329.421875 240.386719 C 331.511719 242.558594 332.625 245.464844 332.570312 248.472656 C 332.503906 251.066406 331.5625 253.648438 329.730469 255.699219 L 328.761719 256.660156 " fill-opacity="1" fill-rule="evenodd"/></g></g></g><g clip-path="url(#dc1aa1bdd9)"><g clip-path="url(#0b654ffcbf)"><g clip-path="url(#ade0252385)"><path fill="#de1341" d="M 291.851562 268.445312 C 291.945312 263.941406 295.675781 260.363281 300.179688 260.457031 C 304.683594 260.550781 308.273438 264.273438 308.179688 268.777344 C 308.085938 273.285156 304.355469 276.859375 299.855469 276.777344 C 295.339844 276.691406 291.765625 272.960938 291.851562 268.445312 " fill-opacity="1" fill-rule="evenodd"/></g></g></g><g clip-path="url(#8d5defe314)"><g clip-path="url(#5e9c35b149)"><g clip-path="url(#6d0d194ddf)"><path fill="#de1341" d="M 260.460938 283.664062 C 254.4375 283.304688 249.734375 278.25 249.855469 272.167969 C 250.089844 260.140625 244.042969 253.835938 232.023438 253.597656 C 225.78125 253.464844 220.832031 248.3125 220.957031 242.078125 L 220.953125 242.050781 C 221.097656 235.828125 226.242188 230.886719 232.46875 231.015625 L 232.492188 231.011719 C 238.726562 231.152344 243.664062 236.308594 243.535156 242.535156 C 243.289062 254.570312 249.332031 260.863281 261.367188 261.105469 C 267.578125 261.230469 272.5625 266.417969 272.433594 272.625 C 272.371094 275.640625 271.105469 278.484375 268.9375 280.558594 C 267.058594 282.359375 264.566406 283.503906 261.808594 283.667969 L 260.460938 283.664062 " fill-opacity="1" fill-rule="evenodd"/></g></g></g><g clip-path="url(#fd0ee7d0ae)"><g clip-path="url(#6e9cdf1f61)"><g clip-path="url(#fff2144d5b)"><path fill="#de1341" d="M 226.023438 265.90625 C 229.269531 262.777344 234.4375 262.878906 237.554688 266.132812 C 240.683594 269.378906 240.582031 274.550781 237.324219 277.683594 C 234.082031 280.792969 228.910156 280.691406 225.785156 277.445312 C 222.667969 274.191406 222.769531 269.023438 226.023438 265.90625 " fill-opacity="1" fill-rule="evenodd"/></g></g></g><g clip-path="url(#de7a08846f)"><g clip-path="url(#a7adda8dc3)"><g clip-path="url(#b74c559808)"><path fill="#020202" d="M 193.0625 254.453125 C 189.058594 249.945312 189.304688 243.042969 193.695312 238.832031 C 202.375 230.492188 202.546875 221.769531 194.21875 213.085938 C 189.894531 208.585938 190.039062 201.4375 194.539062 197.117188 L 194.558594 197.101562 C 199.046875 192.804688 206.183594 192.953125 210.5 197.445312 L 210.523438 197.457031 C 214.820312 201.960938 214.667969 209.097656 210.175781 213.414062 C 201.503906 221.738281 201.316406 230.464844 209.65625 239.144531 C 213.953125 243.625 213.8125 250.824219 209.335938 255.117188 C 207.164062 257.203125 204.257812 258.320312 201.25 258.265625 C 198.65625 258.199219 196.085938 257.246094 194.023438 255.425781 L 193.0625 254.453125 " fill-opacity="1" fill-rule="evenodd"/></g></g></g><g clip-path="url(#6702d119b6)"><g clip-path="url(#020f951496)"><g clip-path="url(#a1e6a1fe5e)"><path fill="#020202" d="M 181.277344 217.542969 C 185.78125 217.636719 189.359375 221.367188 189.265625 225.871094 C 189.171875 230.378906 185.449219 233.964844 180.945312 233.871094 C 176.4375 233.777344 172.863281 230.046875 172.945312 225.550781 C 173.03125 221.035156 176.761719 217.457031 181.277344 217.542969 " fill-opacity="1" fill-rule="evenodd"/></g></g></g><g clip-path="url(#75cf77442f)"><g clip-path="url(#43e96b9de7)"><g clip-path="url(#e6aefa69c0)"><path fill="#020202" d="M 166.058594 186.152344 C 166.417969 180.132812 171.472656 175.425781 177.554688 175.550781 C 189.582031 175.785156 195.882812 169.734375 196.125 157.71875 C 196.257812 151.476562 201.410156 146.527344 207.644531 146.648438 L 207.671875 146.644531 C 213.894531 146.792969 218.828125 151.941406 218.707031 158.160156 L 218.699219 158.191406 C 218.570312 164.417969 213.410156 169.355469 207.1875 169.226562 C 195.152344 168.984375 188.859375 175.027344 188.617188 187.058594 C 188.492188 193.269531 183.304688 198.253906 177.097656 198.128906 C 174.082031 198.0625 171.238281 196.796875 169.164062 194.628906 C 167.363281 192.753906 166.214844 190.257812 166.054688 187.503906 L 166.058594 186.152344 " fill-opacity="1" fill-rule="evenodd"/></g></g></g><g clip-path="url(#e66e8370c4)"><g clip-path="url(#dd2383ef2b)"><g clip-path="url(#910e1d2298)"><path fill="#020202" d="M 183.816406 151.714844 C 186.945312 154.960938 186.839844 160.132812 183.589844 163.25 C 180.332031 166.382812 175.171875 166.273438 172.039062 163.019531 C 168.929688 159.773438 169.03125 154.605469 172.277344 151.476562 C 175.53125 148.359375 180.699219 148.464844 183.816406 151.714844 " fill-opacity="1" fill-rule="evenodd"/></g></g></g><g fill="#ffffff" fill-opacity="1"><g transform="translate(22.45649, 207.724206)"><g><path d="M 20.890625 0.671875 C 17.617188 0.671875 14.707031 0.269531 12.15625 -0.53125 C 9.613281 -1.332031 7.492188 -2.390625 5.796875 -3.703125 C 4.097656 -5.015625 2.800781 -6.457031 1.90625 -8.03125 L 7.03125 -14.28125 L 7.828125 -14.28125 C 9.242188 -12.175781 11.039062 -10.5 13.21875 -9.25 C 15.40625 -8 17.960938 -7.375 20.890625 -7.375 C 23.378906 -7.375 25.253906 -7.898438 26.515625 -8.953125 C 27.785156 -10.003906 28.421875 -11.457031 28.421875 -13.3125 C 28.421875 -14.425781 28.21875 -15.359375 27.8125 -16.109375 C 27.40625 -16.859375 26.726562 -17.503906 25.78125 -18.046875 C 24.832031 -18.585938 23.554688 -19.050781 21.953125 -19.4375 L 15.890625 -20.8125 C 11.660156 -21.78125 8.503906 -23.382812 6.421875 -25.625 C 4.347656 -27.875 3.3125 -30.796875 3.3125 -34.390625 C 3.3125 -37.046875 3.976562 -39.382812 5.3125 -41.40625 C 6.644531 -43.425781 8.582031 -44.992188 11.125 -46.109375 C 13.675781 -47.234375 16.722656 -47.796875 20.265625 -47.796875 C 23.898438 -47.796875 27.007812 -47.316406 29.59375 -46.359375 C 32.1875 -45.398438 34.375 -43.929688 36.15625 -41.953125 L 31.546875 -35.640625 L 30.75 -35.640625 C 29.414062 -37.035156 27.890625 -38.082031 26.171875 -38.78125 C 24.453125 -39.476562 22.484375 -39.828125 20.265625 -39.828125 C 17.710938 -39.828125 15.769531 -39.375 14.4375 -38.46875 C 13.101562 -37.570312 12.4375 -36.328125 12.4375 -34.734375 C 12.4375 -33.253906 12.90625 -32.070312 13.84375 -31.1875 C 14.78125 -30.3125 16.394531 -29.628906 18.6875 -29.140625 L 24.875 -27.84375 C 29.457031 -26.875 32.78125 -25.234375 34.84375 -22.921875 C 36.90625 -20.617188 37.9375 -17.609375 37.9375 -13.890625 C 37.9375 -10.941406 37.300781 -8.378906 36.03125 -6.203125 C 34.757812 -4.023438 32.84375 -2.332031 30.28125 -1.125 C 27.726562 0.0703125 24.597656 0.671875 20.890625 0.671875 Z M 20.890625 0.671875 "/></g></g></g><g fill="#ffffff" fill-opacity="1"><g transform="translate(60.417939, 207.724206)"><g><path d="M 13.859375 0.671875 C 11.578125 0.671875 9.597656 0.253906 7.921875 -0.578125 C 6.253906 -1.421875 4.96875 -2.648438 4.0625 -4.265625 C 3.15625 -5.890625 2.703125 -7.84375 2.703125 -10.125 C 2.703125 -12.226562 3.15625 -13.992188 4.0625 -15.421875 C 4.96875 -16.847656 6.363281 -18.015625 8.25 -18.921875 C 10.144531 -19.835938 12.613281 -20.546875 15.65625 -21.046875 C 17.789062 -21.390625 19.410156 -21.765625 20.515625 -22.171875 C 21.617188 -22.578125 22.363281 -23.035156 22.75 -23.546875 C 23.132812 -24.066406 23.328125 -24.726562 23.328125 -25.53125 C 23.328125 -26.664062 22.929688 -27.53125 22.140625 -28.125 C 21.347656 -28.726562 20.023438 -29.03125 18.171875 -29.03125 C 16.203125 -29.03125 14.320312 -28.585938 12.53125 -27.703125 C 10.75 -26.828125 9.203125 -25.671875 7.890625 -24.234375 L 7.25 -24.234375 L 3.515625 -29.875 C 5.316406 -31.875 7.515625 -33.429688 10.109375 -34.546875 C 12.710938 -35.660156 15.550781 -36.21875 18.625 -36.21875 C 23.332031 -36.21875 26.738281 -35.21875 28.84375 -33.21875 C 30.945312 -31.226562 32 -28.394531 32 -24.71875 L 32 -9.28125 C 32 -7.6875 32.695312 -6.890625 34.09375 -6.890625 C 34.632812 -6.890625 35.160156 -6.988281 35.671875 -7.1875 L 36.125 -7.0625 L 36.765625 -0.84375 C 36.273438 -0.519531 35.585938 -0.253906 34.703125 -0.046875 C 33.828125 0.160156 32.863281 0.265625 31.8125 0.265625 C 29.6875 0.265625 28.023438 -0.140625 26.828125 -0.953125 C 25.640625 -1.773438 24.785156 -3.054688 24.265625 -4.796875 L 23.59375 -4.859375 C 21.851562 -1.171875 18.609375 0.671875 13.859375 0.671875 Z M 16.6875 -6 C 18.75 -6 20.398438 -6.691406 21.640625 -8.078125 C 22.878906 -9.460938 23.5 -11.390625 23.5 -13.859375 L 23.5 -17.46875 L 22.875 -17.59375 C 22.34375 -17.164062 21.640625 -16.804688 20.765625 -16.515625 C 19.898438 -16.222656 18.648438 -15.9375 17.015625 -15.65625 C 15.078125 -15.332031 13.679688 -14.78125 12.828125 -14 C 11.984375 -13.21875 11.5625 -12.109375 11.5625 -10.671875 C 11.5625 -9.140625 12.015625 -7.976562 12.921875 -7.1875 C 13.828125 -6.394531 15.082031 -6 16.6875 -6 Z M 16.6875 -6 "/></g></g></g><g fill="#ffffff" fill-opacity="1"><g transform="translate(95.382856, 207.724206)"><g><path d="M 5.125 0 L 5.125 -35.546875 L 13.703125 -35.546875 L 13.703125 -30.328125 L 14.375 -30.171875 C 16.582031 -34.203125 20.171875 -36.21875 25.140625 -36.21875 C 29.242188 -36.21875 32.253906 -35.097656 34.171875 -32.859375 C 36.097656 -30.628906 37.0625 -27.378906 37.0625 -23.109375 L 37.0625 0 L 28.140625 0 L 28.140625 -22.015625 C 28.140625 -24.378906 27.664062 -26.082031 26.71875 -27.125 C 25.769531 -28.164062 24.253906 -28.6875 22.171875 -28.6875 C 19.617188 -28.6875 17.625 -27.859375 16.1875 -26.203125 C 14.757812 -24.546875 14.046875 -21.945312 14.046875 -18.40625 L 14.046875 0 Z M 5.125 0 "/></g></g></g><g fill="#ffffff" fill-opacity="1"><g transform="translate(134.504258, 207.724206)"><g><path d="M 37.765625 -47.109375 L 37.765625 -39.28125 L 24.171875 -39.28125 L 24.171875 0 L 14.890625 0 L 14.890625 -39.28125 L 1.296875 -39.28125 L 1.296875 -47.109375 Z M 37.765625 -47.109375 "/></g></g></g><g fill="#ffffff" fill-opacity="1"><g transform="translate(171.047988, 207.724206)"><g><path d="M 35.125 -15.765625 L 12.28125 -15.765625 C 12.539062 -12.671875 13.421875 -10.414062 14.921875 -9 C 16.421875 -7.59375 18.472656 -6.890625 21.078125 -6.890625 C 23.117188 -6.890625 24.769531 -7.269531 26.03125 -8.03125 C 27.300781 -8.800781 28.320312 -9.957031 29.09375 -11.5 L 29.78125 -11.5 L 35.703125 -7.703125 C 34.546875 -5.210938 32.796875 -3.191406 30.453125 -1.640625 C 28.109375 -0.0976562 24.984375 0.671875 21.078125 0.671875 C 17.398438 0.671875 14.222656 -0.0234375 11.546875 -1.421875 C 8.878906 -2.816406 6.816406 -4.894531 5.359375 -7.65625 C 3.910156 -10.414062 3.1875 -13.78125 3.1875 -17.75 C 3.1875 -21.789062 3.945312 -25.195312 5.46875 -27.96875 C 7 -30.738281 9.0625 -32.804688 11.65625 -34.171875 C 14.257812 -35.535156 17.1875 -36.21875 20.4375 -36.21875 C 25.457031 -36.21875 29.304688 -34.882812 31.984375 -32.21875 C 34.660156 -29.5625 36 -25.65625 36 -20.5 C 36 -18.625 35.929688 -17.171875 35.796875 -16.140625 Z M 27.453125 -21.53125 C 27.367188 -24.238281 26.738281 -26.207031 25.5625 -27.4375 C 24.394531 -28.675781 22.6875 -29.296875 20.4375 -29.296875 C 15.925781 -29.296875 13.269531 -26.707031 12.46875 -21.53125 Z M 27.453125 -21.53125 "/></g></g></g><g fill="#ffffff" fill-opacity="1"><g transform="translate(207.172852, 207.724206)"><g><path d="M 20.71875 0.671875 C 17.28125 0.671875 14.238281 -0.0390625 11.59375 -1.46875 C 8.957031 -2.894531 6.894531 -4.992188 5.40625 -7.765625 C 3.925781 -10.535156 3.1875 -13.863281 3.1875 -17.75 C 3.1875 -21.664062 3.925781 -25.007812 5.40625 -27.78125 C 6.894531 -30.550781 8.945312 -32.648438 11.5625 -34.078125 C 14.1875 -35.503906 17.1875 -36.21875 20.5625 -36.21875 C 28.0625 -36.21875 32.863281 -33.5 34.96875 -28.0625 L 28.84375 -23.6875 L 28.171875 -23.6875 C 27.441406 -25.363281 26.488281 -26.609375 25.3125 -27.421875 C 24.144531 -28.242188 22.5625 -28.65625 20.5625 -28.65625 C 17.976562 -28.65625 15.96875 -27.757812 14.53125 -25.96875 C 13.09375 -24.1875 12.375 -21.445312 12.375 -17.75 C 12.375 -14.101562 13.101562 -11.378906 14.5625 -9.578125 C 16.03125 -7.785156 18.082031 -6.890625 20.71875 -6.890625 C 22.65625 -6.890625 24.296875 -7.410156 25.640625 -8.453125 C 26.984375 -9.492188 27.941406 -10.992188 28.515625 -12.953125 L 29.203125 -13.015625 L 35.546875 -9.546875 C 34.640625 -6.535156 32.96875 -4.078125 30.53125 -2.171875 C 28.09375 -0.273438 24.820312 0.671875 20.71875 0.671875 Z M 20.71875 0.671875 "/></g></g></g><g fill="#ffffff" fill-opacity="1"><g transform="translate(241.300035, 207.724206)"><g><path d="M 5.125 0 L 5.125 -49.828125 L 14.046875 -49.828125 L 14.046875 -30.90625 L 14.734375 -30.78125 C 15.910156 -32.519531 17.359375 -33.859375 19.078125 -34.796875 C 20.796875 -35.742188 22.867188 -36.21875 25.296875 -36.21875 C 33.140625 -36.21875 37.0625 -31.769531 37.0625 -22.875 L 37.0625 0 L 28.140625 0 L 28.140625 -21.75 C 28.140625 -24.175781 27.65625 -25.9375 26.6875 -27.03125 C 25.71875 -28.132812 24.210938 -28.6875 22.171875 -28.6875 C 19.679688 -28.6875 17.703125 -27.851562 16.234375 -26.1875 C 14.773438 -24.519531 14.046875 -21.925781 14.046875 -18.40625 L 14.046875 0 Z M 5.125 0 "/></g></g></g><g fill="#d9d9d9" fill-opacity="1"><g transform="translate(38.896137, 245.254436)"><g><path d="M 4.59375 0 L 1.859375 0 L 1.859375 -14.28125 L 5.09375 -14.28125 L 10.828125 -5.078125 L 11.078125 -5.125 L 11.078125 -14.28125 L 13.796875 -14.28125 L 13.796875 0 L 10.90625 0 L 4.828125 -9.828125 L 4.59375 -9.78125 Z M 4.59375 0 "/></g></g></g><g fill="#d9d9d9" fill-opacity="1"><g transform="translate(53.784352, 245.254436)"><g><path d="M 10.640625 -4.78125 L 3.71875 -4.78125 C 3.800781 -3.84375 4.066406 -3.160156 4.515625 -2.734375 C 4.972656 -2.304688 5.597656 -2.09375 6.390625 -2.09375 C 7.003906 -2.09375 7.503906 -2.207031 7.890625 -2.4375 C 8.273438 -2.664062 8.582031 -3.015625 8.8125 -3.484375 L 9.03125 -3.484375 L 10.828125 -2.328125 C 10.472656 -1.578125 9.941406 -0.96875 9.234375 -0.5 C 8.523438 -0.03125 7.578125 0.203125 6.390625 0.203125 C 5.273438 0.203125 4.3125 -0.00390625 3.5 -0.421875 C 2.6875 -0.847656 2.0625 -1.476562 1.625 -2.3125 C 1.1875 -3.15625 0.96875 -4.175781 0.96875 -5.375 C 0.96875 -6.601562 1.195312 -7.632812 1.65625 -8.46875 C 2.125 -9.3125 2.75 -9.941406 3.53125 -10.359375 C 4.320312 -10.773438 5.207031 -10.984375 6.1875 -10.984375 C 7.71875 -10.984375 8.882812 -10.578125 9.6875 -9.765625 C 10.5 -8.960938 10.90625 -7.78125 10.90625 -6.21875 C 10.90625 -5.644531 10.882812 -5.203125 10.84375 -4.890625 Z M 8.328125 -6.53125 C 8.296875 -7.34375 8.101562 -7.9375 7.75 -8.3125 C 7.394531 -8.6875 6.875 -8.875 6.1875 -8.875 C 4.820312 -8.875 4.019531 -8.09375 3.78125 -6.53125 Z M 8.328125 -6.53125 "/></g></g></g><g fill="#d9d9d9" fill-opacity="1"><g transform="translate(64.728795, 245.254436)"><g><path d="M 3.03125 0 L 0.1875 0 L 3.265625 -5.59375 L 0.359375 -10.765625 L 3.25 -10.765625 L 5.109375 -7.234375 L 5.328125 -7.234375 L 7.203125 -10.765625 L 10.015625 -10.765625 L 7.1875 -5.59375 L 10.171875 0 L 7.296875 0 L 5.265625 -3.9375 L 5.046875 -3.9375 Z M 3.03125 0 "/></g></g></g><g fill="#d9d9d9" fill-opacity="1"><g transform="translate(74.32611, 245.254436)"><g><path d="M 7.4375 -2.5625 L 8.140625 -0.5625 C 7.847656 -0.320312 7.476562 -0.132812 7.03125 0 C 6.59375 0.132812 6.09375 0.203125 5.53125 0.203125 C 4.363281 0.203125 3.476562 -0.113281 2.875 -0.75 C 2.269531 -1.382812 1.96875 -2.304688 1.96875 -3.515625 L 1.96875 -8.640625 L 0.328125 -8.640625 L 0.328125 -10.78125 L 1.96875 -10.78125 L 1.96875 -12.875 L 4.671875 -13.328125 L 4.671875 -10.78125 L 7.71875 -10.78125 L 7.71875 -8.640625 L 4.671875 -8.640625 L 4.671875 -3.71875 C 4.671875 -3.175781 4.78125 -2.78125 5 -2.53125 C 5.21875 -2.289062 5.539062 -2.171875 5.96875 -2.171875 C 6.445312 -2.171875 6.867188 -2.300781 7.234375 -2.5625 Z M 7.4375 -2.5625 "/></g></g></g><g fill="#d9d9d9" fill-opacity="1"><g transform="translate(81.932013, 245.254436)"><g><path d="M 6.84375 -5.75 L 0.84375 -5.75 L 0.84375 -8.125 L 6.84375 -8.125 Z M 6.84375 -5.75 "/></g></g></g><g fill="#d9d9d9" fill-opacity="1"><g transform="translate(88.874113, 245.254436)"><g><path d="M 5.59375 4.578125 C 3.8125 4.578125 2.492188 4.316406 1.640625 3.796875 C 0.796875 3.273438 0.375 2.546875 0.375 1.609375 C 0.375 1.046875 0.554688 0.582031 0.921875 0.21875 C 1.285156 -0.144531 1.804688 -0.390625 2.484375 -0.515625 L 2.484375 -0.71875 C 2.117188 -0.9375 1.851562 -1.179688 1.6875 -1.453125 C 1.53125 -1.722656 1.453125 -2.035156 1.453125 -2.390625 C 1.453125 -3.253906 2.015625 -3.835938 3.140625 -4.140625 L 3.140625 -4.34375 C 2.566406 -4.675781 2.128906 -5.085938 1.828125 -5.578125 C 1.535156 -6.066406 1.390625 -6.660156 1.390625 -7.359375 C 1.390625 -8.078125 1.554688 -8.707031 1.890625 -9.25 C 2.222656 -9.789062 2.703125 -10.210938 3.328125 -10.515625 C 3.960938 -10.828125 4.722656 -10.984375 5.609375 -10.984375 C 6.515625 -10.984375 7.234375 -10.828125 7.765625 -10.515625 C 8.097656 -10.992188 8.289062 -11.546875 8.34375 -12.171875 L 8.546875 -12.3125 L 10.484375 -11.828125 C 10.429688 -11.316406 10.28125 -10.882812 10.03125 -10.53125 C 9.789062 -10.1875 9.421875 -9.875 8.921875 -9.59375 L 8.921875 -9.390625 C 9.523438 -8.847656 9.828125 -8.101562 9.828125 -7.15625 C 9.828125 -6.488281 9.660156 -5.890625 9.328125 -5.359375 C 8.992188 -4.835938 8.507812 -4.421875 7.875 -4.109375 C 7.238281 -3.804688 6.484375 -3.65625 5.609375 -3.65625 L 5.203125 -3.65625 C 4.941406 -3.675781 4.757812 -3.6875 4.65625 -3.6875 C 4.40625 -3.6875 4.210938 -3.617188 4.078125 -3.484375 C 3.941406 -3.347656 3.875 -3.175781 3.875 -2.96875 C 3.875 -2.738281 3.960938 -2.5625 4.140625 -2.4375 C 4.328125 -2.3125 4.59375 -2.242188 4.9375 -2.234375 L 7.359375 -2.140625 C 9.734375 -2.066406 10.921875 -1.039062 10.921875 0.9375 C 10.921875 1.632812 10.742188 2.253906 10.390625 2.796875 C 10.035156 3.335938 9.460938 3.769531 8.671875 4.09375 C 7.878906 4.414062 6.851562 4.578125 5.59375 4.578125 Z M 5.609375 -5.546875 C 6.128906 -5.546875 6.535156 -5.695312 6.828125 -6 C 7.128906 -6.3125 7.28125 -6.75 7.28125 -7.3125 C 7.28125 -7.882812 7.128906 -8.320312 6.828125 -8.625 C 6.535156 -8.925781 6.128906 -9.078125 5.609375 -9.078125 C 5.085938 -9.078125 4.679688 -8.925781 4.390625 -8.625 C 4.109375 -8.320312 3.96875 -7.882812 3.96875 -7.3125 C 3.96875 -6.738281 4.109375 -6.300781 4.390625 -6 C 4.679688 -5.695312 5.085938 -5.546875 5.609375 -5.546875 Z M 5.59375 2.609375 C 6.507812 2.609375 7.175781 2.476562 7.59375 2.21875 C 8.019531 1.957031 8.234375 1.617188 8.234375 1.203125 C 8.234375 0.859375 8.125 0.609375 7.90625 0.453125 C 7.695312 0.296875 7.359375 0.210938 6.890625 0.203125 L 4.75 0.09375 C 4.6875 0.09375 4.625 0.0859375 4.5625 0.078125 C 4.5 0.078125 4.4375 0.078125 4.375 0.078125 C 3.914062 0.078125 3.566406 0.175781 3.328125 0.375 C 3.097656 0.570312 2.984375 0.84375 2.984375 1.1875 C 2.984375 1.632812 3.195312 1.984375 3.625 2.234375 C 4.0625 2.484375 4.71875 2.609375 5.59375 2.609375 Z M 5.59375 2.609375 "/></g></g></g><g fill="#d9d9d9" fill-opacity="1"><g transform="translate(99.310941, 245.254436)"><g><path d="M 10.640625 -4.78125 L 3.71875 -4.78125 C 3.800781 -3.84375 4.066406 -3.160156 4.515625 -2.734375 C 4.972656 -2.304688 5.597656 -2.09375 6.390625 -2.09375 C 7.003906 -2.09375 7.503906 -2.207031 7.890625 -2.4375 C 8.273438 -2.664062 8.582031 -3.015625 8.8125 -3.484375 L 9.03125 -3.484375 L 10.828125 -2.328125 C 10.472656 -1.578125 9.941406 -0.96875 9.234375 -0.5 C 8.523438 -0.03125 7.578125 0.203125 6.390625 0.203125 C 5.273438 0.203125 4.3125 -0.00390625 3.5 -0.421875 C 2.6875 -0.847656 2.0625 -1.476562 1.625 -2.3125 C 1.1875 -3.15625 0.96875 -4.175781 0.96875 -5.375 C 0.96875 -6.601562 1.195312 -7.632812 1.65625 -8.46875 C 2.125 -9.3125 2.75 -9.941406 3.53125 -10.359375 C 4.320312 -10.773438 5.207031 -10.984375 6.1875 -10.984375 C 7.71875 -10.984375 8.882812 -10.578125 9.6875 -9.765625 C 10.5 -8.960938 10.90625 -7.78125 10.90625 -6.21875 C 10.90625 -5.644531 10.882812 -5.203125 10.84375 -4.890625 Z M 8.328125 -6.53125 C 8.296875 -7.34375 8.101562 -7.9375 7.75 -8.3125 C 7.394531 -8.6875 6.875 -8.875 6.1875 -8.875 C 4.820312 -8.875 4.019531 -8.09375 3.78125 -6.53125 Z M 8.328125 -6.53125 "/></g></g></g><g fill="#d9d9d9" fill-opacity="1"><g transform="translate(110.255383, 245.254436)"><g><path d="M 1.546875 0 L 1.546875 -10.765625 L 4.15625 -10.765625 L 4.15625 -9.1875 L 4.359375 -9.140625 C 5.023438 -10.367188 6.113281 -10.984375 7.625 -10.984375 C 8.863281 -10.984375 9.773438 -10.644531 10.359375 -9.96875 C 10.941406 -9.289062 11.234375 -8.300781 11.234375 -7 L 11.234375 0 L 8.53125 0 L 8.53125 -6.671875 C 8.53125 -7.390625 8.382812 -7.90625 8.09375 -8.21875 C 7.8125 -8.53125 7.351562 -8.6875 6.71875 -8.6875 C 5.945312 -8.6875 5.34375 -8.4375 4.90625 -7.9375 C 4.476562 -7.4375 4.265625 -6.648438 4.265625 -5.578125 L 4.265625 0 Z M 1.546875 0 "/></g></g></g><g fill="#d9d9d9" fill-opacity="1"><g transform="translate(122.107674, 245.254436)"><g><path d="M 10.640625 -4.78125 L 3.71875 -4.78125 C 3.800781 -3.84375 4.066406 -3.160156 4.515625 -2.734375 C 4.972656 -2.304688 5.597656 -2.09375 6.390625 -2.09375 C 7.003906 -2.09375 7.503906 -2.207031 7.890625 -2.4375 C 8.273438 -2.664062 8.582031 -3.015625 8.8125 -3.484375 L 9.03125 -3.484375 L 10.828125 -2.328125 C 10.472656 -1.578125 9.941406 -0.96875 9.234375 -0.5 C 8.523438 -0.03125 7.578125 0.203125 6.390625 0.203125 C 5.273438 0.203125 4.3125 -0.00390625 3.5 -0.421875 C 2.6875 -0.847656 2.0625 -1.476562 1.625 -2.3125 C 1.1875 -3.15625 0.96875 -4.175781 0.96875 -5.375 C 0.96875 -6.601562 1.195312 -7.632812 1.65625 -8.46875 C 2.125 -9.3125 2.75 -9.941406 3.53125 -10.359375 C 4.320312 -10.773438 5.207031 -10.984375 6.1875 -10.984375 C 7.71875 -10.984375 8.882812 -10.578125 9.6875 -9.765625 C 10.5 -8.960938 10.90625 -7.78125 10.90625 -6.21875 C 10.90625 -5.644531 10.882812 -5.203125 10.84375 -4.890625 Z M 8.328125 -6.53125 C 8.296875 -7.34375 8.101562 -7.9375 7.75 -8.3125 C 7.394531 -8.6875 6.875 -8.875 6.1875 -8.875 C 4.820312 -8.875 4.019531 -8.09375 3.78125 -6.53125 Z M 8.328125 -6.53125 "/></g></g></g><g fill="#d9d9d9" fill-opacity="1"><g transform="translate(133.052116, 245.254436)"><g><path d="M 1.546875 0 L 1.546875 -10.765625 L 4.1875 -10.765625 L 4.1875 -9.171875 L 4.390625 -9.125 C 4.648438 -9.726562 4.988281 -10.171875 5.40625 -10.453125 C 5.832031 -10.734375 6.347656 -10.875 6.953125 -10.875 C 7.566406 -10.875 8.03125 -10.769531 8.34375 -10.5625 L 7.890625 -8.21875 L 7.6875 -8.1875 C 7.507812 -8.257812 7.335938 -8.3125 7.171875 -8.34375 C 7.015625 -8.375 6.816406 -8.390625 6.578125 -8.390625 C 5.828125 -8.390625 5.253906 -8.125 4.859375 -7.59375 C 4.460938 -7.0625 4.265625 -6.210938 4.265625 -5.046875 L 4.265625 0 Z M 1.546875 0 "/></g></g></g><g fill="#d9d9d9" fill-opacity="1"><g transform="translate(140.736119, 245.254436)"><g><path d="M 4.203125 0.203125 C 3.515625 0.203125 2.914062 0.078125 2.40625 -0.171875 C 1.894531 -0.429688 1.503906 -0.804688 1.234375 -1.296875 C 0.960938 -1.785156 0.828125 -2.375 0.828125 -3.0625 C 0.828125 -3.707031 0.960938 -4.242188 1.234375 -4.671875 C 1.503906 -5.109375 1.925781 -5.460938 2.5 -5.734375 C 3.070312 -6.015625 3.820312 -6.226562 4.75 -6.375 C 5.394531 -6.476562 5.882812 -6.59375 6.21875 -6.71875 C 6.550781 -6.84375 6.773438 -6.984375 6.890625 -7.140625 C 7.015625 -7.296875 7.078125 -7.492188 7.078125 -7.734375 C 7.078125 -8.078125 6.953125 -8.335938 6.703125 -8.515625 C 6.460938 -8.703125 6.066406 -8.796875 5.515625 -8.796875 C 4.910156 -8.796875 4.335938 -8.660156 3.796875 -8.390625 C 3.253906 -8.128906 2.785156 -7.78125 2.390625 -7.34375 L 2.203125 -7.34375 L 1.0625 -9.046875 C 1.613281 -9.660156 2.28125 -10.132812 3.0625 -10.46875 C 3.851562 -10.8125 4.710938 -10.984375 5.640625 -10.984375 C 7.066406 -10.984375 8.097656 -10.675781 8.734375 -10.0625 C 9.378906 -9.457031 9.703125 -8.597656 9.703125 -7.484375 L 9.703125 -2.8125 C 9.703125 -2.332031 9.910156 -2.09375 10.328125 -2.09375 C 10.492188 -2.09375 10.65625 -2.117188 10.8125 -2.171875 L 10.953125 -2.140625 L 11.140625 -0.25 C 10.992188 -0.15625 10.785156 -0.078125 10.515625 -0.015625 C 10.253906 0.046875 9.960938 0.078125 9.640625 0.078125 C 8.992188 0.078125 8.488281 -0.046875 8.125 -0.296875 C 7.769531 -0.546875 7.515625 -0.929688 7.359375 -1.453125 L 7.15625 -1.46875 C 6.625 -0.351562 5.640625 0.203125 4.203125 0.203125 Z M 5.0625 -1.8125 C 5.6875 -1.8125 6.1875 -2.019531 6.5625 -2.4375 C 6.9375 -2.863281 7.125 -3.453125 7.125 -4.203125 L 7.125 -5.296875 L 6.9375 -5.328125 C 6.769531 -5.203125 6.554688 -5.09375 6.296875 -5 C 6.035156 -4.914062 5.65625 -4.832031 5.15625 -4.75 C 4.570312 -4.644531 4.148438 -4.472656 3.890625 -4.234375 C 3.628906 -4.003906 3.5 -3.671875 3.5 -3.234375 C 3.5 -2.773438 3.632812 -2.421875 3.90625 -2.171875 C 4.1875 -1.929688 4.570312 -1.8125 5.0625 -1.8125 Z M 5.0625 -1.8125 "/></g></g></g><g fill="#d9d9d9" fill-opacity="1"><g transform="translate(151.329136, 245.254436)"><g><path d="M 7.4375 -2.5625 L 8.140625 -0.5625 C 7.847656 -0.320312 7.476562 -0.132812 7.03125 0 C 6.59375 0.132812 6.09375 0.203125 5.53125 0.203125 C 4.363281 0.203125 3.476562 -0.113281 2.875 -0.75 C 2.269531 -1.382812 1.96875 -2.304688 1.96875 -3.515625 L 1.96875 -8.640625 L 0.328125 -8.640625 L 0.328125 -10.78125 L 1.96875 -10.78125 L 1.96875 -12.875 L 4.671875 -13.328125 L 4.671875 -10.78125 L 7.71875 -10.78125 L 7.71875 -8.640625 L 4.671875 -8.640625 L 4.671875 -3.71875 C 4.671875 -3.175781 4.78125 -2.78125 5 -2.53125 C 5.21875 -2.289062 5.539062 -2.171875 5.96875 -2.171875 C 6.445312 -2.171875 6.867188 -2.300781 7.234375 -2.5625 Z M 7.4375 -2.5625 "/></g></g></g><g fill="#d9d9d9" fill-opacity="1"><g transform="translate(158.935039, 245.254436)"><g><path d="M 2.90625 -12.0625 C 2.414062 -12.0625 2.015625 -12.207031 1.703125 -12.5 C 1.398438 -12.800781 1.25 -13.1875 1.25 -13.65625 C 1.25 -14.113281 1.398438 -14.488281 1.703125 -14.78125 C 2.015625 -15.082031 2.414062 -15.234375 2.90625 -15.234375 C 3.226562 -15.234375 3.515625 -15.164062 3.765625 -15.03125 C 4.023438 -14.894531 4.222656 -14.707031 4.359375 -14.46875 C 4.503906 -14.226562 4.578125 -13.957031 4.578125 -13.65625 C 4.578125 -13.34375 4.503906 -13.066406 4.359375 -12.828125 C 4.222656 -12.585938 4.023438 -12.398438 3.765625 -12.265625 C 3.515625 -12.128906 3.226562 -12.0625 2.90625 -12.0625 Z M 1.546875 0 L 1.546875 -10.765625 L 4.265625 -10.765625 L 4.265625 0 Z M 1.546875 0 "/></g></g></g><g fill="#d9d9d9" fill-opacity="1"><g transform="translate(163.973586, 245.254436)"><g><path d="M 6.265625 0.203125 C 5.203125 0.203125 4.269531 -0.0078125 3.46875 -0.4375 C 2.675781 -0.875 2.0625 -1.507812 1.625 -2.34375 C 1.1875 -3.1875 0.96875 -4.195312 0.96875 -5.375 C 0.96875 -6.5625 1.1875 -7.570312 1.625 -8.40625 C 2.0625 -9.25 2.675781 -9.890625 3.46875 -10.328125 C 4.269531 -10.765625 5.203125 -10.984375 6.265625 -10.984375 C 7.316406 -10.984375 8.238281 -10.765625 9.03125 -10.328125 C 9.832031 -9.890625 10.453125 -9.25 10.890625 -8.40625 C 11.335938 -7.570312 11.5625 -6.5625 11.5625 -5.375 C 11.5625 -4.195312 11.335938 -3.1875 10.890625 -2.34375 C 10.453125 -1.507812 9.832031 -0.875 9.03125 -0.4375 C 8.238281 -0.0078125 7.316406 0.203125 6.265625 0.203125 Z M 6.265625 -2.09375 C 7.929688 -2.09375 8.765625 -3.1875 8.765625 -5.375 C 8.765625 -6.519531 8.550781 -7.359375 8.125 -7.890625 C 7.695312 -8.421875 7.078125 -8.6875 6.265625 -8.6875 C 4.585938 -8.6875 3.75 -7.582031 3.75 -5.375 C 3.75 -3.1875 4.585938 -2.09375 6.265625 -2.09375 Z M 6.265625 -2.09375 "/></g></g></g><g fill="#d9d9d9" fill-opacity="1"><g transform="translate(175.728258, 245.254436)"><g><path d="M 1.546875 0 L 1.546875 -10.765625 L 4.15625 -10.765625 L 4.15625 -9.1875 L 4.359375 -9.140625 C 5.023438 -10.367188 6.113281 -10.984375 7.625 -10.984375 C 8.863281 -10.984375 9.773438 -10.644531 10.359375 -9.96875 C 10.941406 -9.289062 11.234375 -8.300781 11.234375 -7 L 11.234375 0 L 8.53125 0 L 8.53125 -6.671875 C 8.53125 -7.390625 8.382812 -7.90625 8.09375 -8.21875 C 7.8125 -8.53125 7.351562 -8.6875 6.71875 -8.6875 C 5.945312 -8.6875 5.34375 -8.4375 4.90625 -7.9375 C 4.476562 -7.4375 4.265625 -6.648438 4.265625 -5.578125 L 4.265625 0 Z M 1.546875 0 "/></g></g></g><g fill="#d9d9d9" fill-opacity="1"><g transform="translate(187.580549, 245.254436)"><g/></g></g><g fill="#d9d9d9" fill-opacity="1"><g transform="translate(191.535535, 245.254436)"><g><path d="M 4.671875 0 L 1.859375 0 L 1.859375 -14.28125 L 4.671875 -14.28125 Z M 4.671875 0 "/></g></g></g><g fill="#d9d9d9" fill-opacity="1"><g transform="translate(197.31598, 245.254436)"><g><path d="M 11.453125 -14.28125 L 11.453125 -11.90625 L 7.328125 -11.90625 L 7.328125 0 L 4.515625 0 L 4.515625 -11.90625 L 0.390625 -11.90625 L 0.390625 -14.28125 Z M 11.453125 -14.28125 "/></g></g></g><g fill="#d9d9d9" fill-opacity="1"><g transform="translate(124.923475, 267.754434)"><g><path d="M 5.046875 0.203125 C 4.304688 0.203125 3.628906 0.117188 3.015625 -0.046875 C 2.398438 -0.222656 1.875 -0.460938 1.4375 -0.765625 C 1.007812 -1.066406 0.691406 -1.414062 0.484375 -1.8125 L 2 -3.421875 L 2.203125 -3.421875 C 2.554688 -2.941406 2.976562 -2.582031 3.46875 -2.34375 C 3.957031 -2.101562 4.488281 -1.984375 5.0625 -1.984375 C 5.582031 -1.984375 5.976562 -2.078125 6.25 -2.265625 C 6.519531 -2.453125 6.65625 -2.722656 6.65625 -3.078125 C 6.65625 -3.347656 6.554688 -3.578125 6.359375 -3.765625 C 6.171875 -3.953125 5.863281 -4.097656 5.4375 -4.203125 L 4 -4.546875 C 2.9375 -4.796875 2.15625 -5.179688 1.65625 -5.703125 C 1.164062 -6.234375 0.921875 -6.898438 0.921875 -7.703125 C 0.921875 -8.378906 1.09375 -8.960938 1.4375 -9.453125 C 1.78125 -9.953125 2.257812 -10.332031 2.875 -10.59375 C 3.5 -10.851562 4.226562 -10.984375 5.0625 -10.984375 C 6.03125 -10.984375 6.832031 -10.84375 7.46875 -10.5625 C 8.101562 -10.28125 8.601562 -9.90625 8.96875 -9.4375 L 7.515625 -7.875 L 7.328125 -7.875 C 7.023438 -8.207031 6.6875 -8.453125 6.3125 -8.609375 C 5.9375 -8.765625 5.519531 -8.84375 5.0625 -8.84375 C 3.988281 -8.84375 3.453125 -8.515625 3.453125 -7.859375 C 3.453125 -7.578125 3.550781 -7.347656 3.75 -7.171875 C 3.945312 -6.992188 4.300781 -6.847656 4.8125 -6.734375 L 6.140625 -6.453125 C 7.234375 -6.210938 8.03125 -5.832031 8.53125 -5.3125 C 9.03125 -4.800781 9.28125 -4.109375 9.28125 -3.234375 C 9.28125 -2.546875 9.109375 -1.941406 8.765625 -1.421875 C 8.429688 -0.898438 7.945312 -0.5 7.3125 -0.21875 C 6.675781 0.0625 5.921875 0.203125 5.046875 0.203125 Z M 5.046875 0.203125 "/></g></g></g><g fill="#d9d9d9" fill-opacity="1"><g transform="translate(134.091269, 267.754434)"><g><path d="M 6.265625 0.203125 C 5.203125 0.203125 4.269531 -0.0078125 3.46875 -0.4375 C 2.675781 -0.875 2.0625 -1.507812 1.625 -2.34375 C 1.1875 -3.1875 0.96875 -4.195312 0.96875 -5.375 C 0.96875 -6.5625 1.1875 -7.570312 1.625 -8.40625 C 2.0625 -9.25 2.675781 -9.890625 3.46875 -10.328125 C 4.269531 -10.765625 5.203125 -10.984375 6.265625 -10.984375 C 7.316406 -10.984375 8.238281 -10.765625 9.03125 -10.328125 C 9.832031 -9.890625 10.453125 -9.25 10.890625 -8.40625 C 11.335938 -7.570312 11.5625 -6.5625 11.5625 -5.375 C 11.5625 -4.195312 11.335938 -3.1875 10.890625 -2.34375 C 10.453125 -1.507812 9.832031 -0.875 9.03125 -0.4375 C 8.238281 -0.0078125 7.316406 0.203125 6.265625 0.203125 Z M 6.265625 -2.09375 C 7.929688 -2.09375 8.765625 -3.1875 8.765625 -5.375 C 8.765625 -6.519531 8.550781 -7.359375 8.125 -7.890625 C 7.695312 -8.421875 7.078125 -8.6875 6.265625 -8.6875 C 4.585938 -8.6875 3.75 -7.582031 3.75 -5.375 C 3.75 -3.1875 4.585938 -2.09375 6.265625 -2.09375 Z M 6.265625 -2.09375 "/></g></g></g><g fill="#d9d9d9" fill-opacity="1"><g transform="translate(145.845943, 267.754434)"><g><path d="M 4.46875 0.203125 C 3.5 0.203125 2.757812 -0.0546875 2.25 -0.578125 C 1.738281 -1.109375 1.484375 -1.90625 1.484375 -2.96875 L 1.484375 -15.09375 L 4.1875 -15.09375 L 4.1875 -3.078125 C 4.1875 -2.421875 4.460938 -2.09375 5.015625 -2.09375 C 5.171875 -2.09375 5.335938 -2.117188 5.515625 -2.171875 L 5.640625 -2.125 L 5.890625 -0.046875 C 5.742188 0.0234375 5.546875 0.0820312 5.296875 0.125 C 5.046875 0.175781 4.769531 0.203125 4.46875 0.203125 Z M 4.46875 0.203125 "/></g></g></g><g fill="#d9d9d9" fill-opacity="1"><g transform="translate(151.274963, 267.754434)"><g><path d="M 4.9375 0.203125 C 3.71875 0.203125 2.820312 -0.125 2.25 -0.78125 C 1.675781 -1.445312 1.390625 -2.398438 1.390625 -3.640625 L 1.390625 -10.765625 L 4.09375 -10.765625 L 4.09375 -3.96875 C 4.09375 -3.3125 4.234375 -2.832031 4.515625 -2.53125 C 4.796875 -2.226562 5.234375 -2.078125 5.828125 -2.078125 C 6.578125 -2.078125 7.160156 -2.320312 7.578125 -2.8125 C 7.992188 -3.3125 8.203125 -4.085938 8.203125 -5.140625 L 8.203125 -10.765625 L 10.90625 -10.765625 L 10.90625 0 L 8.3125 0 L 8.3125 -1.578125 L 8.109375 -1.625 C 7.765625 -1.007812 7.34375 -0.550781 6.84375 -0.25 C 6.34375 0.0507812 5.707031 0.203125 4.9375 0.203125 Z M 4.9375 0.203125 "/></g></g></g><g fill="#d9d9d9" fill-opacity="1"><g transform="translate(162.971067, 267.754434)"><g><path d="M 7.4375 -2.5625 L 8.140625 -0.5625 C 7.847656 -0.320312 7.476562 -0.132812 7.03125 0 C 6.59375 0.132812 6.09375 0.203125 5.53125 0.203125 C 4.363281 0.203125 3.476562 -0.113281 2.875 -0.75 C 2.269531 -1.382812 1.96875 -2.304688 1.96875 -3.515625 L 1.96875 -8.640625 L 0.328125 -8.640625 L 0.328125 -10.78125 L 1.96875 -10.78125 L 1.96875 -12.875 L 4.671875 -13.328125 L 4.671875 -10.78125 L 7.71875 -10.78125 L 7.71875 -8.640625 L 4.671875 -8.640625 L 4.671875 -3.71875 C 4.671875 -3.175781 4.78125 -2.78125 5 -2.53125 C 5.21875 -2.289062 5.539062 -2.171875 5.96875 -2.171875 C 6.445312 -2.171875 6.867188 -2.300781 7.234375 -2.5625 Z M 7.4375 -2.5625 "/></g></g></g><g fill="#d9d9d9" fill-opacity="1"><g transform="translate(170.57697, 267.754434)"><g><path d="M 2.90625 -12.0625 C 2.414062 -12.0625 2.015625 -12.207031 1.703125 -12.5 C 1.398438 -12.800781 1.25 -13.1875 1.25 -13.65625 C 1.25 -14.113281 1.398438 -14.488281 1.703125 -14.78125 C 2.015625 -15.082031 2.414062 -15.234375 2.90625 -15.234375 C 3.226562 -15.234375 3.515625 -15.164062 3.765625 -15.03125 C 4.023438 -14.894531 4.222656 -14.707031 4.359375 -14.46875 C 4.503906 -14.226562 4.578125 -13.957031 4.578125 -13.65625 C 4.578125 -13.34375 4.503906 -13.066406 4.359375 -12.828125 C 4.222656 -12.585938 4.023438 -12.398438 3.765625 -12.265625 C 3.515625 -12.128906 3.226562 -12.0625 2.90625 -12.0625 Z M 1.546875 0 L 1.546875 -10.765625 L 4.265625 -10.765625 L 4.265625 0 Z M 1.546875 0 "/></g></g></g><g fill="#d9d9d9" fill-opacity="1"><g transform="translate(175.615517, 267.754434)"><g><path d="M 6.265625 0.203125 C 5.203125 0.203125 4.269531 -0.0078125 3.46875 -0.4375 C 2.675781 -0.875 2.0625 -1.507812 1.625 -2.34375 C 1.1875 -3.1875 0.96875 -4.195312 0.96875 -5.375 C 0.96875 -6.5625 1.1875 -7.570312 1.625 -8.40625 C 2.0625 -9.25 2.675781 -9.890625 3.46875 -10.328125 C 4.269531 -10.765625 5.203125 -10.984375 6.265625 -10.984375 C 7.316406 -10.984375 8.238281 -10.765625 9.03125 -10.328125 C 9.832031 -9.890625 10.453125 -9.25 10.890625 -8.40625 C 11.335938 -7.570312 11.5625 -6.5625 11.5625 -5.375 C 11.5625 -4.195312 11.335938 -3.1875 10.890625 -2.34375 C 10.453125 -1.507812 9.832031 -0.875 9.03125 -0.4375 C 8.238281 -0.0078125 7.316406 0.203125 6.265625 0.203125 Z M 6.265625 -2.09375 C 7.929688 -2.09375 8.765625 -3.1875 8.765625 -5.375 C 8.765625 -6.519531 8.550781 -7.359375 8.125 -7.890625 C 7.695312 -8.421875 7.078125 -8.6875 6.265625 -8.6875 C 4.585938 -8.6875 3.75 -7.582031 3.75 -5.375 C 3.75 -3.1875 4.585938 -2.09375 6.265625 -2.09375 Z M 6.265625 -2.09375 "/></g></g></g><g fill="#d9d9d9" fill-opacity="1"><g transform="translate(187.370189, 267.754434)"><g><path d="M 1.546875 0 L 1.546875 -10.765625 L 4.15625 -10.765625 L 4.15625 -9.1875 L 4.359375 -9.140625 C 5.023438 -10.367188 6.113281 -10.984375 7.625 -10.984375 C 8.863281 -10.984375 9.773438 -10.644531 10.359375 -9.96875 C 10.941406 -9.289062 11.234375 -8.300781 11.234375 -7 L 11.234375 0 L 8.53125 0 L 8.53125 -6.671875 C 8.53125 -7.390625 8.382812 -7.90625 8.09375 -8.21875 C 7.8125 -8.53125 7.351562 -8.6875 6.71875 -8.6875 C 5.945312 -8.6875 5.34375 -8.4375 4.90625 -7.9375 C 4.476562 -7.4375 4.265625 -6.648438 4.265625 -5.578125 L 4.265625 0 Z M 1.546875 0 "/></g></g></g><g fill="#d9d9d9" fill-opacity="1"><g transform="translate(199.22248, 267.754434)"><g><path d="M 5.046875 0.203125 C 4.304688 0.203125 3.628906 0.117188 3.015625 -0.046875 C 2.398438 -0.222656 1.875 -0.460938 1.4375 -0.765625 C 1.007812 -1.066406 0.691406 -1.414062 0.484375 -1.8125 L 2 -3.421875 L 2.203125 -3.421875 C 2.554688 -2.941406 2.976562 -2.582031 3.46875 -2.34375 C 3.957031 -2.101562 4.488281 -1.984375 5.0625 -1.984375 C 5.582031 -1.984375 5.976562 -2.078125 6.25 -2.265625 C 6.519531 -2.453125 6.65625 -2.722656 6.65625 -3.078125 C 6.65625 -3.347656 6.554688 -3.578125 6.359375 -3.765625 C 6.171875 -3.953125 5.863281 -4.097656 5.4375 -4.203125 L 4 -4.546875 C 2.9375 -4.796875 2.15625 -5.179688 1.65625 -5.703125 C 1.164062 -6.234375 0.921875 -6.898438 0.921875 -7.703125 C 0.921875 -8.378906 1.09375 -8.960938 1.4375 -9.453125 C 1.78125 -9.953125 2.257812 -10.332031 2.875 -10.59375 C 3.5 -10.851562 4.226562 -10.984375 5.0625 -10.984375 C 6.03125 -10.984375 6.832031 -10.84375 7.46875 -10.5625 C 8.101562 -10.28125 8.601562 -9.90625 8.96875 -9.4375 L 7.515625 -7.875 L 7.328125 -7.875 C 7.023438 -8.207031 6.6875 -8.453125 6.3125 -8.609375 C 5.9375 -8.765625 5.519531 -8.84375 5.0625 -8.84375 C 3.988281 -8.84375 3.453125 -8.515625 3.453125 -7.859375 C 3.453125 -7.578125 3.550781 -7.347656 3.75 -7.171875 C 3.945312 -6.992188 4.300781 -6.847656 4.8125 -6.734375 L 6.140625 -6.453125 C 7.234375 -6.210938 8.03125 -5.832031 8.53125 -5.3125 C 9.03125 -4.800781 9.28125 -4.109375 9.28125 -3.234375 C 9.28125 -2.546875 9.109375 -1.941406 8.765625 -1.421875 C 8.429688 -0.898438 7.945312 -0.5 7.3125 -0.21875 C 6.675781 0.0625 5.921875 0.203125 5.046875 0.203125 Z M 5.046875 0.203125 "/></g></g></g></svg>